<svg width="54" height="54" viewBox="0 0 54 54" fill="none" xmlns="http://www.w3.org/2000/svg">
<path d="M5 26.5C5 14.0935 14.8692 4 27 4C39.1308 4 49 14.0935 49 26.5C49 38.9065 39.1308 49 27 49C14.8692 49 5 38.9065 5 26.5Z" fill="#D2C69A"/>
<path d="M0 27C0 12.1122 12.1122 0 27 0C41.8878 0 54 12.1122 54 27C54 41.8878 41.8878 54 27 54C12.1122 54 0 41.8878 0 27Z" fill="#D2C69A" fill-opacity="0.2"/>
<path d="M28.927 40C28.9207 39.1287 28.9207 38.2574 28.9143 37.386C28.9143 36.432 28.9207 35.4717 28.908 34.5177C28.908 34.3396 28.9525 34.2824 29.1369 34.2442C31.8017 33.71 33.4808 32.12 34.1804 29.4933C34.1867 29.4679 34.1931 29.4424 34.1995 29.417C34.3012 28.9146 34.3012 28.9146 34.8164 28.9146C36.4445 28.9146 38.0663 28.9146 39.6945 28.9146C39.7962 28.9146 39.898 28.9209 39.9998 28.9273C39.9998 29.01 39.9998 29.099 39.9998 29.1817C39.9807 29.2707 39.9616 29.3598 39.9489 29.4488C39.7454 31.1469 39.2302 32.7433 38.3525 34.2124C37.4939 35.6498 36.3873 36.8518 35.0263 37.8185C33.7606 38.7216 32.3678 39.3576 30.8478 39.6947C30.2944 39.8156 29.7348 39.8982 29.1814 39.9936C29.0924 40 29.0097 40 28.927 40Z" fill="white"/>
<path d="M27.1464 40.0001C26.6503 39.9174 26.1415 39.8601 25.6518 39.752C23.1523 39.2114 21.0472 37.9839 19.33 36.0887C18.2043 34.8485 17.3966 33.4302 16.8623 31.8466C16.6461 31.2042 16.9704 30.7208 17.651 30.7145C19.0756 30.7081 20.4939 30.7145 21.9185 30.7081C22.3001 30.7081 22.5863 30.8544 22.7771 31.1915C23.1587 31.8593 23.6421 32.4444 24.2399 32.9278C25.0921 33.621 26.0589 34.0598 27.1401 34.2316C27.3436 34.2634 27.3945 34.3397 27.3945 34.5368C27.3881 36.254 27.3881 37.9712 27.3881 39.6884C27.3881 39.7902 27.3945 39.8919 27.4008 39.9937C27.3181 40.0001 27.2291 40.0001 27.1464 40.0001Z" fill="white"/>
<path d="M39.9932 27.4011C39.8152 27.3947 39.6371 27.3884 39.459 27.3884C37.8181 27.3884 36.1772 27.382 34.5364 27.3947C34.3392 27.3947 34.2629 27.3439 34.2311 27.1403C33.9576 25.5249 33.1626 24.2211 31.8652 23.2226C31.6362 23.0509 31.3945 22.8919 31.1465 22.7456C30.8412 22.5612 30.7077 22.294 30.7077 21.9442C30.7077 20.5069 30.7013 19.0695 30.7077 17.6258C30.714 16.9771 31.1974 16.6464 31.8143 16.8499C34.6699 17.8166 36.8768 19.591 38.4096 22.1859C39.2746 23.6487 39.7834 25.2324 39.9424 26.9241C39.9487 27.0004 39.9742 27.0704 39.9869 27.1467C39.9932 27.2357 39.9932 27.3184 39.9932 27.4011Z" fill="white"/>
<path d="M28.9146 21.4607C28.9146 23.6167 28.9146 25.7791 28.9146 27.9351C28.9146 28.6475 28.6411 28.9146 27.9288 28.9146C23.604 28.9146 19.2792 28.9146 14.9608 28.9146C14.2675 28.9146 13.9877 28.6347 14.0004 27.9479C14.0958 21.8105 18.0835 16.4681 23.9347 14.6364C25.2321 14.2294 26.5677 14.0259 27.9288 14.0004C28.6411 13.9877 28.9209 14.2612 28.9209 14.9671C28.9146 17.1295 28.9146 19.2919 28.9146 21.4607Z" fill="white"/>
</svg>
