<svg width="1920" height="367" viewBox="0 0 1920 367" fill="none" xmlns="http://www.w3.org/2000/svg">
<g clip-path="url(#clip0_901_3303)">
<path fill-rule="evenodd" clip-rule="evenodd" d="M76.5947 32.6782L52.7477 5.06283L28.9007 32.6782L5.05367 60.2936L28.9007 87.9091L52.7477 115.524L76.5947 87.9091L100.442 60.2936L76.5947 32.6782ZM76.5947 154.83L52.7477 127.215L28.9007 154.83L5.05367 182.446L28.9007 210.061L52.7477 237.677L76.5947 210.061L100.442 182.446L76.5947 154.83ZM76.5947 276.983L52.7477 249.367L28.9007 276.983L5.05367 304.598L28.9007 332.213L52.7477 359.829L76.5947 332.213L100.442 304.598L76.5947 276.983ZM76.5947 399.135L52.7477 371.519L28.9007 399.135L5.05367 426.75L28.9007 454.366L52.7477 481.981L76.5947 454.366L100.442 426.75L76.5947 399.135ZM76.5947 521.287L52.7477 493.671L28.9007 521.287L5.05367 548.902L28.9007 576.518L52.7477 604.133L76.5947 576.518L100.442 548.902L76.5947 521.287ZM76.5947 643.531L52.7477 615.916L28.9007 643.531L5.05367 671.147L28.9007 698.762L52.7477 726.377L76.5947 698.762L100.442 671.147L76.5947 643.531ZM76.5947 765.683L52.7477 738.068L28.9007 765.683L5.05367 793.299L28.9007 820.914L52.7477 848.53L76.5947 820.914L100.442 793.299L76.5947 765.683ZM76.5947 887.835L52.7477 860.22L28.9007 887.835L5.05367 915.451L28.9007 943.066L52.7477 970.682L76.5947 943.066L100.442 915.451L76.5947 887.835ZM155.085 94.4447L131.238 66.8293L107.39 94.4447L83.5435 122.06L107.39 149.676L131.238 177.291L155.085 149.676L178.932 122.06L155.085 94.4447ZM155.085 216.689L131.238 189.074L107.39 216.689L83.5435 244.304L107.39 271.92L131.238 299.535L155.085 271.92L178.932 244.304L155.085 216.689ZM155.085 338.841L131.238 311.226L107.39 338.841L83.5435 366.456L107.39 394.072L131.238 421.687L155.085 394.072L178.932 366.456L155.085 338.841ZM155.085 460.993L131.238 433.378L107.39 460.993L83.5435 488.609L107.39 516.224L131.238 543.84L155.085 516.224L178.932 488.609L155.085 460.993ZM155.085 583.145L131.238 555.53L107.39 583.145L83.5435 610.761L107.39 638.376L131.238 665.992L155.085 638.376L178.932 610.761L155.085 583.145ZM155.085 705.298L131.238 677.682L107.39 705.298L83.5435 732.913L107.39 760.528L131.238 788.144L155.085 760.528L178.932 732.913L155.085 705.298ZM155.085 827.45L131.238 799.834L107.39 827.45L83.5435 855.065L107.39 882.681L131.238 910.296L155.085 882.681L178.932 855.065L155.085 827.45ZM232.548 32.6782L208.701 5.06283L184.854 32.6782L161.007 60.2936L184.854 87.9091L208.701 115.524L232.548 87.9091L256.395 60.2936L232.548 32.6782ZM232.548 154.83L208.701 127.215L184.854 154.83L161.007 182.446L184.854 210.061L208.701 237.677L232.548 210.061L256.395 182.446L232.548 154.83ZM232.548 276.983L208.701 249.367L184.854 276.983L161.007 304.598L184.854 332.213L208.701 359.829L232.548 332.213L256.395 304.598L232.548 276.983ZM232.548 399.135L208.701 371.519L184.854 399.135L161.007 426.75L184.854 454.366L208.701 481.981L232.548 454.366L256.395 426.75L232.548 399.135ZM232.548 521.287L208.701 493.671L184.854 521.287L161.007 548.902L184.854 576.518L208.701 604.133L232.548 576.518L256.395 548.902L232.548 521.287ZM232.548 643.531L208.701 615.916L184.854 643.531L161.007 671.147L184.854 698.762L208.701 726.377L232.548 698.762L256.395 671.147L232.548 643.531ZM232.548 765.683L208.701 738.068L184.854 765.683L161.007 793.299L184.854 820.914L208.701 848.53L232.548 820.914L256.395 793.299L232.548 765.683ZM232.548 887.835L208.701 860.22L184.854 887.835L161.007 915.451L184.854 943.066L208.701 970.682L232.548 943.066L256.395 915.451L232.548 887.835ZM310.959 94.4447L287.112 66.8293L263.265 94.4447L239.418 122.06L263.265 149.676L287.112 177.291L310.959 149.676L334.806 122.06L310.959 94.4447ZM310.959 216.689L287.112 189.074L263.265 216.689L239.418 244.304L263.265 271.92L287.112 299.535L310.959 271.92L334.806 244.304L310.959 216.689ZM310.959 338.841L287.112 311.226L263.265 338.841L239.418 366.456L263.265 394.072L287.112 421.687L310.959 394.072L334.806 366.456L310.959 338.841ZM310.959 460.993L287.112 433.378L263.265 460.993L239.418 488.609L263.265 516.224L287.112 543.84L310.959 516.224L334.806 488.609L310.959 460.993ZM310.959 583.145L287.112 555.53L263.265 583.145L239.418 610.761L263.265 638.376L287.112 665.992L310.959 638.376L334.806 610.761L310.959 583.145ZM310.959 705.298L287.112 677.682L263.265 705.298L239.418 732.913L263.265 760.528L287.112 788.144L310.959 760.528L334.806 732.913L310.959 705.298ZM310.959 827.45L287.112 799.834L263.265 827.45L239.418 855.065L263.265 882.681L287.112 910.296L310.959 882.681L334.806 855.065L310.959 827.45ZM388.422 32.6782L364.575 5.06283L340.728 32.6782L316.881 60.2936L340.728 87.9091L364.575 115.524L388.422 87.9091L412.269 60.2936L388.422 32.6782ZM388.422 154.83L364.575 127.215L340.728 154.83L316.881 182.446L340.728 210.061L364.575 237.677L388.422 210.061L412.269 182.446L388.422 154.83ZM388.422 276.983L364.575 249.367L340.728 276.983L316.881 304.598L340.728 332.213L364.575 359.829L388.422 332.213L412.269 304.598L388.422 276.983ZM388.422 399.135L364.575 371.519L340.728 399.135L316.881 426.75L340.728 454.366L364.575 481.981L388.422 454.366L412.269 426.75L388.422 399.135ZM388.422 521.287L364.575 493.671L340.728 521.287L316.881 548.902L340.728 576.518L364.575 604.133L388.422 576.518L412.269 548.902L388.422 521.287ZM388.422 643.531L364.575 615.916L340.728 643.531L316.881 671.147L340.728 698.762L364.575 726.377L388.422 698.762L412.269 671.147L388.422 643.531ZM388.422 765.683L364.575 738.068L340.728 765.683L316.881 793.299L340.728 820.914L364.575 848.53L388.422 820.914L412.269 793.299L388.422 765.683ZM388.422 887.835L364.575 860.22L340.728 887.835L316.881 915.451L340.728 943.066L364.575 970.682L388.422 943.066L412.269 915.451L388.422 887.835ZM466.833 94.4447L442.986 66.8293L419.139 94.4447L395.292 122.06L419.139 149.676L442.986 177.291L466.833 149.676L490.68 122.06L466.833 94.4447ZM466.833 216.689L442.986 189.074L419.139 216.689L395.292 244.304L419.139 271.92L442.986 299.535L466.833 271.92L490.68 244.304L466.833 216.689ZM466.833 338.841L442.986 311.226L419.139 338.841L395.292 366.456L419.139 394.072L442.986 421.687L466.833 394.072L490.68 366.456L466.833 338.841ZM466.833 460.993L442.986 433.378L419.139 460.993L395.213 488.609L419.06 516.224L442.907 543.84L466.754 516.224L490.601 488.609L466.833 460.993ZM466.833 583.145L442.986 555.53L419.139 583.145L395.292 610.761L419.139 638.376L442.986 665.992L466.833 638.376L490.68 610.761L466.833 583.145ZM466.833 705.298L442.986 677.682L419.139 705.298L395.292 732.913L419.139 760.528L442.986 788.144L466.833 760.528L490.68 732.913L466.833 705.298ZM466.833 827.45L442.986 799.834L419.139 827.45L395.292 855.065L419.139 882.681L442.986 910.296L466.833 882.681L490.68 855.065L466.833 827.45ZM544.296 32.6782L520.449 5.06283L496.602 32.6782L472.755 60.2936L496.602 87.9091L520.449 115.524L544.296 87.9091L568.143 60.2936L544.296 32.6782ZM544.296 154.83L520.449 127.215L496.602 154.83L472.755 182.446L496.602 210.061L520.449 237.677L544.296 210.061L568.143 182.446L544.296 154.83ZM544.296 276.983L520.449 249.367L496.602 276.983L472.755 304.598L496.602 332.213L520.449 359.829L544.296 332.213L568.143 304.598L544.296 276.983ZM544.296 399.135L520.449 371.519L496.602 399.135L472.755 426.75L496.602 454.366L520.449 481.981L544.296 454.366L568.143 426.75L544.296 399.135ZM544.296 521.287L520.449 493.671L496.602 521.287L472.755 548.902L496.602 576.518L520.449 604.133L544.296 576.518L568.143 548.902L544.296 521.287ZM544.296 643.531L520.449 615.916L496.602 643.531L472.755 671.147L496.602 698.762L520.449 726.377L544.296 698.762L568.143 671.147L544.296 643.531ZM544.296 765.683L520.449 738.068L496.602 765.683L472.755 793.299L496.602 820.914L520.449 848.53L544.296 820.914L568.143 793.299L544.296 765.683ZM544.296 887.835L520.449 860.22L496.602 887.835L472.755 915.451L496.602 943.066L520.449 970.682L544.296 943.066L568.143 915.451L544.296 887.835ZM622.707 94.4447L598.86 66.8293L575.013 94.4447L551.166 122.06L575.013 149.676L598.86 177.291L622.707 149.676L646.554 122.06L622.707 94.4447ZM622.707 216.689L598.86 189.074L575.013 216.689L551.166 244.304L575.013 271.92L598.86 299.535L622.707 271.92L646.554 244.304L622.707 216.689ZM622.707 338.841L598.86 311.226L575.013 338.841L551.166 366.456L575.013 394.072L598.86 421.687L622.707 394.072L646.554 366.456L622.707 338.841ZM622.707 460.993L598.86 433.378L575.013 460.993L551.166 488.609L575.013 516.224L598.86 543.84L622.707 516.224L646.554 488.609L622.707 460.993ZM622.707 583.145L598.86 555.53L575.013 583.145L551.166 610.761L575.013 638.376L598.86 665.992L622.707 638.376L646.554 610.761L622.707 583.145ZM622.707 705.298L598.86 677.682L575.013 705.298L551.166 732.913L575.013 760.528L598.86 788.144L622.707 760.528L646.554 732.913L622.707 705.298ZM622.707 827.45L598.86 799.834L575.013 827.45L551.166 855.065L575.013 882.681L598.86 910.296L622.707 882.681L646.554 855.065L622.707 827.45ZM700.17 32.6782L676.323 5.06283L652.476 32.6782L628.629 60.2936L652.476 87.9091L676.323 115.524L700.17 87.9091L724.017 60.2936L700.17 32.6782ZM700.17 154.83L676.323 127.215L652.476 154.83L628.629 182.446L652.476 210.061L676.323 237.677L700.17 210.061L724.017 182.446L700.17 154.83ZM700.17 276.983L676.323 249.367L652.476 276.983L628.629 304.598L652.476 332.213L676.323 359.829L700.17 332.213L724.017 304.598L700.17 276.983ZM700.17 399.135L676.323 371.519L652.476 399.135L628.629 426.75L652.476 454.366L676.323 481.981L700.17 454.366L724.017 426.75L700.17 399.135ZM700.17 521.287L676.323 493.671L652.476 521.287L628.629 548.902L652.476 576.518L676.323 604.133L700.17 576.518L724.017 548.902L700.17 521.287ZM700.17 643.531L676.323 615.916L652.476 643.531L628.629 671.147L652.476 698.762L676.323 726.377L700.17 698.762L724.017 671.147L700.17 643.531ZM700.17 765.683L676.323 738.068L652.476 765.683L628.629 793.299L652.476 820.914L676.323 848.53L700.17 820.914L724.017 793.299L700.17 765.683ZM700.17 887.835L676.323 860.22L652.476 887.835L628.629 915.451L652.476 943.066L676.323 970.682L700.17 943.066L724.017 915.451L700.17 887.835ZM778.581 94.4447L754.734 66.8293L730.887 94.4447L707.04 122.06L730.887 149.676L754.734 177.291L778.581 149.676L802.428 122.06L778.581 94.4447ZM778.581 216.689L754.734 189.074L730.887 216.689L707.04 244.304L730.887 271.92L754.734 299.535L778.581 271.92L802.428 244.304L778.581 216.689ZM778.581 338.841L754.734 311.226L730.887 338.841L707.04 366.456L730.887 394.072L754.734 421.687L778.581 394.072L802.428 366.456L778.581 338.841ZM778.581 460.993L754.734 433.378L730.887 460.993L707.04 488.609L730.887 516.224L754.734 543.84L778.581 516.224L802.428 488.609L778.581 460.993ZM778.581 583.145L754.734 555.53L730.887 583.145L707.04 610.761L730.887 638.376L754.734 665.992L778.581 638.376L802.428 610.761L778.581 583.145ZM778.581 705.298L754.734 677.682L730.887 705.298L707.04 732.913L730.887 760.528L754.734 788.144L778.581 760.528L802.428 732.913L778.581 705.298ZM778.581 827.45L754.734 799.834L730.887 827.45L707.04 855.065L730.887 882.681L754.734 910.296L778.581 882.681L802.428 855.065L778.581 827.45ZM856.044 32.6782L832.197 5.06283L808.35 32.6782L784.503 60.2936L808.35 87.9091L832.197 115.524L856.044 87.9091L879.891 60.2936L856.044 32.6782ZM856.044 154.83L832.197 127.215L808.35 154.83L784.503 182.446L808.35 210.061L832.197 237.677L856.044 210.061L879.891 182.446L856.044 154.83ZM856.044 276.983L832.197 249.367L808.35 276.983L784.503 304.598L808.35 332.213L832.197 359.829L856.044 332.213L879.891 304.598L856.044 276.983ZM856.044 399.135L832.197 371.519L808.35 399.135L784.503 426.75L808.35 454.366L832.197 481.981L856.044 454.366L879.891 426.75L856.044 399.135ZM856.044 521.287L832.197 493.671L808.35 521.287L784.503 548.902L808.35 576.518L832.197 604.133L856.044 576.518L879.891 548.902L856.044 521.287ZM856.044 643.531L832.197 615.916L808.35 643.531L784.503 671.147L808.35 698.762L832.197 726.377L856.044 698.762L879.891 671.147L856.044 643.531ZM856.044 765.683L832.197 738.068L808.35 765.683L784.503 793.299L808.35 820.914L832.197 848.53L856.044 820.914L879.891 793.299L856.044 765.683ZM856.044 887.835L832.197 860.22L808.35 887.835L784.503 915.451L808.35 943.066L832.197 970.682L856.044 943.066L879.891 915.451L856.044 887.835ZM934.534 94.4447L910.687 66.8293L886.84 94.4447L862.993 122.06L886.84 149.676L910.687 177.291L934.534 149.676L958.381 122.06L934.534 94.4447ZM934.534 216.689L910.687 189.074L886.84 216.689L862.993 244.304L886.84 271.92L910.687 299.535L934.534 271.92L958.381 244.304L934.534 216.689ZM934.534 338.841L910.687 311.226L886.84 338.841L862.993 366.456L886.84 394.072L910.687 421.687L934.534 394.072L958.381 366.456L934.534 338.841ZM934.534 460.993L910.687 433.378L886.84 460.993L862.993 488.609L886.84 516.224L910.687 543.84L934.534 516.224L958.381 488.609L934.534 460.993ZM934.534 583.145L910.687 555.53L886.84 583.145L862.993 610.761L886.84 638.376L910.687 665.992L934.534 638.376L958.381 610.761L934.534 583.145ZM934.534 705.298L910.687 677.682L886.84 705.298L862.993 732.913L886.84 760.528L910.687 788.144L934.534 760.528L958.381 732.913L934.534 705.298ZM934.534 827.45L910.687 799.834L886.84 827.45L862.993 855.065L886.84 882.681L910.687 910.296L934.534 882.681L958.381 855.065L934.534 827.45ZM1012 32.6782L988.151 5.06283L964.304 32.6782L940.457 60.2936L964.304 87.9091L988.151 115.524L1012 87.9091L1035.84 60.2936L1012 32.6782ZM1012 154.83L988.151 127.215L964.304 154.83L940.457 182.446L964.304 210.061L988.151 237.677L1012 210.061L1035.84 182.446L1012 154.83ZM1012 276.983L988.151 249.367L964.304 276.983L940.457 304.598L964.304 332.213L988.151 359.829L1012 332.213L1035.84 304.598L1012 276.983ZM1012 399.135L988.151 371.519L964.304 399.135L940.457 426.75L964.304 454.366L988.151 481.981L1012 454.366L1035.84 426.75L1012 399.135ZM1012 521.287L988.151 493.671L964.304 521.287L940.457 548.902L964.304 576.518L988.151 604.133L1012 576.518L1035.84 548.902L1012 521.287ZM1012 643.531L988.151 615.916L964.304 643.531L940.457 671.147L964.304 698.762L988.151 726.377L1012 698.762L1035.84 671.147L1012 643.531ZM1012 765.683L988.151 738.068L964.304 765.683L940.457 793.299L964.304 820.914L988.151 848.53L1012 820.914L1035.84 793.299L1012 765.683ZM1012 887.835L988.151 860.22L964.304 887.835L940.457 915.451L964.304 943.066L988.151 970.682L1012 943.066L1035.84 915.451L1012 887.835ZM1090.41 94.4447L1066.56 66.8293L1042.71 94.4447L1018.87 122.06L1042.71 149.676L1066.56 177.291L1090.41 149.676L1114.26 122.06L1090.41 94.4447ZM1090.41 216.689L1066.56 189.074L1042.71 216.689L1018.87 244.304L1042.71 271.92L1066.56 299.535L1090.41 271.92L1114.26 244.304L1090.41 216.689ZM1090.41 338.841L1066.56 311.226L1042.71 338.841L1018.87 366.456L1042.71 394.072L1066.56 421.687L1090.41 394.072L1114.26 366.456L1090.41 338.841ZM1090.41 460.993L1066.56 433.378L1042.71 460.993L1018.87 488.609L1042.71 516.224L1066.56 543.84L1090.41 516.224L1114.26 488.609L1090.41 460.993ZM1090.41 583.145L1066.56 555.53L1042.71 583.145L1018.87 610.761L1042.71 638.376L1066.56 665.992L1090.41 638.376L1114.26 610.761L1090.41 583.145ZM1090.41 705.298L1066.56 677.682L1042.71 705.298L1018.87 732.913L1042.71 760.528L1066.56 788.144L1090.41 760.528L1114.26 732.913L1090.41 705.298ZM1090.41 827.45L1066.56 799.834L1042.71 827.45L1018.87 855.065L1042.71 882.681L1066.56 910.296L1090.41 882.681L1114.26 855.065L1090.41 827.45ZM1167.87 32.6782L1144.02 5.06283L1120.18 32.6782L1096.33 60.2936L1120.18 87.9091L1144.02 115.524L1167.87 87.9091L1191.72 60.2936L1167.87 32.6782ZM1167.87 154.83L1144.02 127.215L1120.18 154.83L1096.33 182.446L1120.18 210.061L1144.02 237.677L1167.87 210.061L1191.72 182.446L1167.87 154.83ZM1167.87 276.983L1144.02 249.367L1120.18 276.983L1096.33 304.598L1120.18 332.213L1144.02 359.829L1167.87 332.213L1191.72 304.598L1167.87 276.983ZM1167.87 399.135L1144.02 371.519L1120.18 399.135L1096.33 426.75L1120.18 454.366L1144.02 481.981L1167.87 454.366L1191.72 426.75L1167.87 399.135ZM1167.87 521.287L1144.02 493.671L1120.18 521.287L1096.33 548.902L1120.18 576.518L1144.02 604.133L1167.87 576.518L1191.72 548.902L1167.87 521.287ZM1167.87 643.531L1144.02 615.916L1120.18 643.531L1096.33 671.147L1120.18 698.762L1144.02 726.377L1167.87 698.762L1191.72 671.147L1167.87 643.531ZM1167.87 765.683L1144.02 738.068L1120.18 765.683L1096.33 793.299L1120.18 820.914L1144.02 848.53L1167.87 820.914L1191.72 793.299L1167.87 765.683ZM1167.87 887.835L1144.02 860.22L1120.18 887.835L1096.33 915.451L1120.18 943.066L1144.02 970.682L1167.87 943.066L1191.72 915.451L1167.87 887.835ZM1246.28 94.4447L1222.44 66.8293L1198.59 94.4447L1174.74 122.06L1198.59 149.676L1222.44 177.291L1246.28 149.676L1270.13 122.06L1246.28 94.4447ZM1246.28 216.689L1222.44 189.074L1198.59 216.689L1174.74 244.304L1198.59 271.92L1222.44 299.535L1246.28 271.92L1270.13 244.304L1246.28 216.689ZM1246.28 338.841L1222.44 311.226L1198.59 338.841L1174.74 366.456L1198.59 394.072L1222.44 421.687L1246.28 394.072L1270.13 366.456L1246.28 338.841ZM1246.28 460.993L1222.44 433.378L1198.59 460.993L1174.74 488.609L1198.59 516.224L1222.44 543.84L1246.28 516.224L1270.13 488.609L1246.28 460.993ZM1246.28 583.145L1222.44 555.53L1198.59 583.145L1174.74 610.761L1198.59 638.376L1222.44 665.992L1246.28 638.376L1270.13 610.761L1246.28 583.145ZM1246.28 705.298L1222.44 677.682L1198.59 705.298L1174.74 732.913L1198.59 760.528L1222.44 788.144L1246.28 760.528L1270.13 732.913L1246.28 705.298ZM1246.28 827.45L1222.44 799.834L1198.59 827.45L1174.74 855.065L1198.59 882.681L1222.44 910.296L1246.28 882.681L1270.13 855.065L1246.28 827.45ZM1323.75 32.6782L1299.9 5.06283L1276.05 32.6782L1252.2 60.2936L1276.05 87.9091L1299.9 115.524L1323.75 87.9091L1347.59 60.2936L1323.75 32.6782ZM1323.75 154.83L1299.9 127.215L1276.05 154.83L1252.2 182.446L1276.05 210.061L1299.9 237.677L1323.75 210.061L1347.59 182.446L1323.75 154.83ZM1323.75 276.983L1299.9 249.367L1276.05 276.983L1252.2 304.598L1276.05 332.213L1299.9 359.829L1323.75 332.213L1347.59 304.598L1323.75 276.983ZM1323.75 399.135L1299.9 371.519L1276.05 399.135L1252.2 426.75L1276.05 454.366L1299.9 481.981L1323.75 454.366L1347.59 426.75L1323.75 399.135ZM1323.75 521.287L1299.9 493.671L1276.05 521.287L1252.2 548.902L1276.05 576.518L1299.9 604.133L1323.75 576.518L1347.59 548.902L1323.75 521.287ZM1323.75 643.531L1299.9 615.916L1276.05 643.531L1252.2 671.147L1276.05 698.762L1299.9 726.377L1323.75 698.762L1347.59 671.147L1323.75 643.531ZM1323.75 765.683L1299.9 738.068L1276.05 765.683L1252.2 793.299L1276.05 820.914L1299.9 848.53L1323.75 820.914L1347.59 793.299L1323.75 765.683ZM1323.75 887.835L1299.9 860.22L1276.05 887.835L1252.2 915.451L1276.05 943.066L1299.9 970.682L1323.75 943.066L1347.59 915.451L1323.75 887.835ZM1402.16 94.4447L1378.31 66.8293L1354.46 94.4447L1330.62 122.06L1354.46 149.676L1378.31 177.291L1402.16 149.676L1426 122.06L1402.16 94.4447ZM1402.16 216.689L1378.31 189.074L1354.46 216.689L1330.62 244.304L1354.46 271.92L1378.31 299.535L1402.16 271.92L1426 244.304L1402.16 216.689ZM1402.16 338.841L1378.31 311.226L1354.46 338.841L1330.62 366.456L1354.46 394.072L1378.31 421.687L1402.16 394.072L1426 366.456L1402.16 338.841ZM1402.16 460.993L1378.31 433.378L1354.46 460.993L1330.62 488.609L1354.46 516.224L1378.31 543.84L1402.16 516.224L1426 488.609L1402.16 460.993ZM1402.16 583.145L1378.31 555.53L1354.46 583.145L1330.62 610.761L1354.46 638.376L1378.31 665.992L1402.16 638.376L1426 610.761L1402.16 583.145ZM1402.16 705.298L1378.31 677.682L1354.46 705.298L1330.62 732.913L1354.46 760.528L1378.31 788.144L1402.16 760.528L1426 732.913L1402.16 705.298ZM1402.16 827.45L1378.31 799.834L1354.46 827.45L1330.62 855.065L1354.46 882.681L1378.31 910.296L1402.16 882.681L1426 855.065L1402.16 827.45ZM1479.62 32.6782L1455.77 5.06283L1431.93 32.6782L1408.08 60.2936L1431.93 87.9091L1455.77 115.524L1479.62 87.9091L1503.47 60.2936L1479.62 32.6782ZM1479.62 154.83L1455.77 127.215L1431.93 154.83L1408.08 182.446L1431.93 210.061L1455.77 237.677L1479.62 210.061L1503.47 182.446L1479.62 154.83ZM1479.62 276.983L1455.77 249.367L1431.93 276.983L1408.08 304.598L1431.93 332.213L1455.77 359.829L1479.62 332.213L1503.47 304.598L1479.62 276.983ZM1479.62 399.135L1455.77 371.519L1431.93 399.135L1408.08 426.75L1431.93 454.366L1455.77 481.981L1479.62 454.366L1503.47 426.75L1479.62 399.135ZM1479.62 521.287L1455.77 493.671L1431.93 521.287L1408.08 548.902L1431.93 576.518L1455.77 604.133L1479.62 576.518L1503.47 548.902L1479.62 521.287ZM1479.62 643.531L1455.77 615.916L1431.93 643.531L1408.08 671.147L1431.93 698.762L1455.77 726.377L1479.62 698.762L1503.47 671.147L1479.62 643.531ZM1479.62 765.683L1455.77 738.068L1431.93 765.683L1408.08 793.299L1431.93 820.914L1455.77 848.53L1479.62 820.914L1503.47 793.299L1479.62 765.683ZM1479.62 887.835L1455.77 860.22L1431.93 887.835L1408.08 915.451L1431.93 943.066L1455.77 970.682L1479.62 943.066L1503.47 915.451L1479.62 887.835ZM1558.03 94.4447L1534.18 66.8293L1510.34 94.4447L1486.49 122.06L1510.34 149.676L1534.18 177.291L1558.03 149.676L1581.88 122.06L1558.03 94.4447ZM1558.03 216.689L1534.18 189.074L1510.34 216.689L1486.49 244.304L1510.34 271.92L1534.18 299.535L1558.03 271.92L1581.88 244.304L1558.03 216.689ZM1558.03 338.841L1534.18 311.226L1510.34 338.841L1486.49 366.456L1510.34 394.072L1534.18 421.687L1558.03 394.072L1581.88 366.456L1558.03 338.841ZM1558.03 460.993L1534.18 433.378L1510.34 460.993L1486.49 488.609L1510.34 516.224L1534.18 543.84L1558.03 516.224L1581.88 488.609L1558.03 460.993ZM1558.03 583.145L1534.18 555.53L1510.34 583.145L1486.49 610.761L1510.34 638.376L1534.18 665.992L1558.03 638.376L1581.88 610.761L1558.03 583.145ZM1558.03 705.298L1534.18 677.682L1510.34 705.298L1486.49 732.913L1510.34 760.528L1534.18 788.144L1558.03 760.528L1581.88 732.913L1558.03 705.298ZM1558.03 827.45L1534.18 799.834L1510.34 827.45L1486.49 855.065L1510.34 882.681L1534.18 910.296L1558.03 882.681L1581.88 855.065L1558.03 827.45ZM1635.49 32.6782L1611.65 5.06283L1587.8 32.6782L1563.95 60.2936L1587.8 87.9091L1611.65 115.524L1635.49 87.9091L1659.34 60.2936L1635.49 32.6782ZM1635.49 154.83L1611.65 127.215L1587.8 154.83L1563.95 182.446L1587.8 210.061L1611.65 237.677L1635.49 210.061L1659.34 182.446L1635.49 154.83ZM1635.49 276.983L1611.65 249.367L1587.8 276.983L1563.95 304.598L1587.8 332.213L1611.65 359.829L1635.49 332.213L1659.34 304.598L1635.49 276.983ZM1635.49 399.135L1611.65 371.519L1587.8 399.135L1563.95 426.75L1587.8 454.366L1611.65 481.981L1635.49 454.366L1659.34 426.75L1635.49 399.135ZM1635.49 521.287L1611.65 493.671L1587.8 521.287L1563.95 548.902L1587.8 576.518L1611.65 604.133L1635.49 576.518L1659.34 548.902L1635.49 521.287ZM1635.49 643.531L1611.65 615.916L1587.8 643.531L1563.95 671.147L1587.8 698.762L1611.65 726.377L1635.49 698.762L1659.34 671.147L1635.49 643.531ZM1635.49 765.683L1611.65 738.068L1587.8 765.683L1563.95 793.299L1587.8 820.914L1611.65 848.53L1635.49 820.914L1659.34 793.299L1635.49 765.683ZM1635.49 887.835L1611.65 860.22L1587.8 887.835L1563.95 915.451L1587.8 943.066L1611.65 970.682L1635.49 943.066L1659.34 915.451L1635.49 887.835ZM1713.91 94.4447L1690.06 66.8293L1666.21 94.4447L1642.36 122.06L1666.21 149.676L1690.06 177.291L1713.91 149.676L1737.75 122.06L1713.91 94.4447ZM1713.91 216.689L1690.06 189.074L1666.21 216.689L1642.36 244.304L1666.21 271.92L1690.06 299.535L1713.91 271.92L1737.75 244.304L1713.91 216.689ZM1713.91 338.841L1690.06 311.226L1666.21 338.841L1642.36 366.456L1666.21 394.072L1690.06 421.687L1713.91 394.072L1737.75 366.456L1713.91 338.841ZM1713.91 460.993L1690.06 433.378L1666.21 460.993L1642.36 488.609L1666.21 516.224L1690.06 543.84L1713.91 516.224L1737.75 488.609L1713.91 460.993ZM1713.91 583.145L1690.06 555.53L1666.21 583.145L1642.36 610.761L1666.21 638.376L1690.06 665.992L1713.91 638.376L1737.75 610.761L1713.91 583.145ZM1713.91 705.298L1690.06 677.682L1666.21 705.298L1642.36 732.913L1666.21 760.528L1690.06 788.144L1713.91 760.528L1737.75 732.913L1713.91 705.298ZM1713.91 827.45L1690.06 799.834L1666.21 827.45L1642.36 855.065L1666.21 882.681L1690.06 910.296L1713.91 882.681L1737.75 855.065L1713.91 827.45ZM1791.37 32.6782L1767.52 5.06283L1743.67 32.6782L1719.83 60.2936L1743.67 87.9091L1767.52 115.524L1791.37 87.9091L1815.22 60.2936L1791.37 32.6782ZM1791.37 154.83L1767.52 127.215L1743.67 154.83L1719.83 182.446L1743.67 210.061L1767.52 237.677L1791.37 210.061L1815.22 182.446L1791.37 154.83ZM1791.37 276.983L1767.52 249.367L1743.67 276.983L1719.83 304.598L1743.67 332.213L1767.52 359.829L1791.37 332.213L1815.22 304.598L1791.37 276.983ZM1791.37 399.135L1767.52 371.519L1743.67 399.135L1719.83 426.75L1743.67 454.366L1767.52 481.981L1791.37 454.366L1815.22 426.75L1791.37 399.135ZM1791.37 521.287L1767.52 493.671L1743.67 521.287L1719.83 548.902L1743.67 576.518L1767.52 604.133L1791.37 576.518L1815.22 548.902L1791.37 521.287ZM1791.37 643.531L1767.52 615.916L1743.67 643.531L1719.83 671.147L1743.67 698.762L1767.52 726.377L1791.37 698.762L1815.22 671.147L1791.37 643.531ZM1791.37 765.683L1767.52 738.068L1743.67 765.683L1719.83 793.299L1743.67 820.914L1767.52 848.53L1791.37 820.914L1815.22 793.299L1791.37 765.683ZM1791.37 887.835L1767.52 860.22L1743.67 887.835L1719.83 915.451L1743.67 943.066L1767.52 970.682L1791.37 943.066L1815.22 915.451L1791.37 887.835ZM1869.86 94.4447L1846.01 66.8293L1822.16 94.4447L1798.32 122.06L1822.16 149.676L1846.01 177.291L1869.86 149.676L1893.71 122.06L1869.86 94.4447ZM1869.86 216.689L1846.01 189.074L1822.16 216.689L1798.32 244.304L1822.16 271.92L1846.01 299.535L1869.86 271.92L1893.71 244.304L1869.86 216.689ZM1869.86 338.841L1846.01 311.226L1822.16 338.841L1798.32 366.456L1822.16 394.072L1846.01 421.687L1869.86 394.072L1893.71 366.456L1869.86 338.841ZM1869.86 460.993L1846.01 433.378L1822.16 460.993L1798.32 488.609L1822.16 516.224L1846.01 543.84L1869.86 516.224L1893.71 488.609L1869.86 460.993ZM1869.86 583.145L1846.01 555.53L1822.16 583.145L1798.32 610.761L1822.16 638.376L1846.01 665.992L1869.86 638.376L1893.71 610.761L1869.86 583.145ZM1869.86 705.298L1846.01 677.682L1822.16 705.298L1798.32 732.913L1822.16 760.528L1846.01 788.144L1869.86 760.528L1893.71 732.913L1869.86 705.298ZM1869.86 827.45L1846.01 799.834L1822.16 827.45L1798.32 855.065L1822.16 882.681L1846.01 910.296L1869.86 882.681L1893.71 855.065L1869.86 827.45ZM53.3794 0H52.116L51.4843 0.736411L26.3738 29.7326L1.26342 58.8208L0 60.2936L1.26342 61.7665L26.3738 90.8547L51.4843 119.943L52.7477 121.416L51.4843 122.889L26.3738 151.977L1.26342 181.065L0 182.538L1.26342 184.011L26.3738 213.099L51.4843 242.187L52.7477 243.66L51.4843 245.133L26.3738 274.129L1.26342 303.217L0 304.69L1.26342 306.163L26.3738 335.251L51.4843 364.339L52.7477 365.812L51.4843 367.285L26.3738 396.373L1.26342 425.461L0 426.934L1.26342 428.407L26.3738 457.311L51.4843 486.399L52.7477 487.872L51.4843 489.345L26.3738 518.433L1.26342 547.522L0 548.994L1.26342 550.467L26.3738 579.555L51.4843 608.644L52.7477 610.116L51.4843 611.589L26.3738 640.678L1.26342 669.766L0 671.239L1.26342 672.711L26.3738 701.8L51.4843 730.888L52.7477 732.361L51.4843 733.834L26.3738 762.922L1.26342 792.01L0 793.483L1.26342 794.956L26.3738 824.044L51.4843 853.132L52.7477 854.605L51.4843 856.078L26.3738 885.166L1.26342 914.254L0 915.727L1.26342 917.2L26.3738 946.288L51.4843 975.376L52.7477 976.849L51.4843 978.322L42.5614 988.632H47.5361L52.6687 982.648L57.8014 988.632H62.7761L53.8532 978.322L52.5898 976.849L53.8532 975.376L78.9636 946.288L104.074 917.2L105.337 915.727L104.074 914.254L78.9636 885.166L53.8532 856.078L52.5898 854.605L53.8532 853.132L78.9636 824.044L104.074 794.956L105.337 793.483L104.074 792.01L78.9636 762.922L53.8532 733.834L52.5898 732.361L53.8532 730.888L78.9636 701.8L104.074 672.711L105.337 671.239L104.074 669.766L78.9636 640.678L53.8532 611.589L52.5898 610.116L53.8532 608.644L78.9636 579.555L104.074 550.467L105.337 548.994L104.074 547.522L78.9636 518.433L53.8532 489.345L52.5898 487.872L53.8532 486.399L79.1215 457.311L104.232 428.223L105.495 426.75L104.232 425.277L79.1215 396.189L54.0111 367.101L52.7477 365.628L54.0111 364.155L79.1215 335.067L104.232 305.979L105.495 304.506L104.232 303.033L79.1215 274.129L54.0111 245.041L52.7477 243.568L54.0111 242.095L79.1215 213.007L104.232 183.919L105.495 182.446L104.232 180.973L79.1215 151.885L54.0111 122.797L52.7477 121.324L54.0111 119.851L79.1215 90.7627L104.232 61.6744L105.495 60.2016L104.232 58.7288L79.1215 29.7326L54.0111 0.64436L53.3794 0ZM183.906 0H178.932L155.085 27.6154L131.238 55.2308L107.39 27.6154L83.5435 0H78.5688L79.8322 1.47282L104.943 30.5611L130.053 59.6493L131.316 61.1221L130.053 62.5949L104.943 91.6832L79.8322 120.771L78.5688 122.244L79.8322 123.717L104.943 152.805L130.053 181.894L131.316 183.366L130.053 184.839L104.943 213.927L79.6743 242.832L78.4109 244.304L79.6743 245.777L104.785 274.865L129.895 303.954L131.159 305.426L129.895 306.899L104.785 335.988L79.6743 365.076L78.4109 366.549L79.6743 368.021L104.785 397.11L129.895 426.198L131.159 427.671L129.895 429.143L104.785 458.232L79.6743 487.32L78.4109 488.793L79.6743 490.266L104.785 519.354L129.895 548.442L131.159 549.915L129.895 551.388L104.785 580.476L79.6743 609.564L78.4109 611.037L79.6743 612.51L104.785 641.598L129.895 670.686L131.159 672.159L129.895 673.632L104.785 702.72L79.6743 731.808L78.4109 733.281L79.6743 734.754L104.785 763.842L129.895 792.93L131.159 794.403L129.895 795.876L104.864 824.596L79.7532 853.684L78.4898 855.157L79.7532 856.63L104.864 885.718L129.974 914.807L131.238 916.279L129.974 917.752L104.864 946.841L79.7532 975.929L78.4898 977.401L79.7532 978.874L88.0444 988.448H93.0191L83.4645 977.401L107.312 949.786L131.159 922.171L155.006 949.786L178.853 977.401L169.298 988.448H174.273L182.564 978.874L183.827 977.401L182.564 975.929L157.453 946.841L132.343 917.752L131.08 916.279L132.343 914.807L157.453 885.718L182.564 856.63L183.827 855.157L182.564 853.684L157.532 824.596L132.422 795.508L131.159 794.035L132.422 792.562L157.532 763.474L182.643 734.386L183.906 732.913L182.643 731.44L157.532 702.444L132.422 673.356L131.159 671.883L132.422 670.41L157.532 641.322L182.643 612.234L183.906 610.761L182.643 609.288L157.532 580.2L132.422 551.112L131.159 549.639L132.422 548.166L157.532 519.078L182.643 489.989L183.906 488.517L182.643 487.044L157.532 458.048L132.422 428.959L131.159 427.487L132.422 426.014L157.532 396.926L182.643 367.837L183.906 366.364L182.643 364.892L157.532 335.895L132.422 306.807L131.159 305.334L132.422 303.862L157.532 274.773L182.643 245.685L183.906 244.212L182.643 242.739L157.532 213.743L132.422 184.655L131.159 183.182L132.422 181.709L157.532 152.621L182.643 123.533L183.906 122.06L182.643 120.587L157.532 91.5911L132.422 62.5029L131.159 61.0301L132.422 59.5572L157.532 30.469L182.643 1.38077L183.906 0ZM209.254 0H208.069L207.437 0.736411L182.327 29.8246L157.217 58.9129L155.953 60.3857L157.217 61.8585L182.327 90.9468L207.437 120.035L208.701 121.508L207.437 122.981L182.327 152.069L157.217 181.157L155.953 182.63L157.217 184.103L182.327 213.191L207.437 242.279L208.701 243.752L207.437 245.225L182.327 274.129L157.217 303.217L155.953 304.69L157.217 306.163L182.327 335.251L207.437 364.339L208.701 365.812L207.437 367.285L182.327 396.373L157.217 425.461L155.953 426.934L157.217 428.407L182.327 457.495L207.437 486.584L208.701 488.056L207.437 489.529L182.327 518.617L157.138 547.522L155.874 548.994L157.138 550.467L182.248 579.555L207.358 608.644L208.622 610.116L207.358 611.589L182.248 640.678L157.138 669.766L155.874 671.239L157.138 672.711L182.248 701.8L207.358 730.888L208.622 732.361L207.358 733.834L182.248 762.922L157.138 792.01L155.953 793.299L157.217 794.772L182.327 823.86L207.437 852.948L208.701 854.421L207.437 855.894L182.327 884.982L157.217 914.07L155.953 915.543L157.217 917.016L182.327 946.104L207.437 975.192L208.701 976.665L207.437 978.138L198.514 988.448H203.489L208.622 982.464L213.754 988.448H218.729L209.806 978.138L208.543 976.665L209.806 975.192L234.917 946.104L260.027 917.016L261.291 915.543L260.027 914.07L234.917 884.982L209.806 855.894L208.543 854.421L209.806 852.948L234.917 823.86L260.027 794.772L261.291 793.299L260.027 791.826L234.917 762.738L209.806 733.649L208.543 732.177L209.806 730.704L234.917 701.616L260.027 672.527L261.291 671.055L260.027 669.582L234.917 640.493L209.806 611.405L208.543 609.932L209.806 608.46L234.917 579.371L260.027 550.283L261.291 548.81L260.027 547.337L234.917 518.249L209.806 489.161L208.543 487.688L209.806 486.215L234.917 457.127L260.027 428.039L261.291 426.566L260.027 425.093L234.917 396.005L209.806 366.917L208.543 365.444L209.806 363.971L234.917 334.883L260.027 305.795L261.291 304.322L260.027 302.849L234.996 274.129L209.885 245.041L208.622 243.568L209.885 242.095L234.996 213.007L260.106 183.919L261.37 182.446L260.106 180.973L234.996 151.885L209.885 122.797L208.622 121.324L209.885 119.851L234.996 90.7627L260.106 61.6744L261.37 60.2016L260.106 58.7288L234.996 29.6405L209.885 0.64436L209.254 0ZM339.78 0H334.806L310.959 27.6154L287.112 55.2308L263.265 27.6154L239.418 0H234.443L235.706 1.47282L260.817 30.5611L285.927 59.6493L287.191 61.1221L285.927 62.5949L260.817 91.6832L235.706 120.771L234.443 122.244L235.706 123.717L260.817 152.805L285.927 181.894L287.191 183.366L285.927 184.839L260.817 213.927L235.627 242.832L234.364 244.304L235.627 245.777L260.738 274.865L285.848 303.954L287.112 305.426L285.848 306.899L260.738 335.988L235.627 365.076L234.364 366.549L235.627 368.021L260.738 397.11L285.848 426.198L287.112 427.671L285.848 429.143L260.738 458.232L235.627 487.32L234.364 488.793L235.627 490.266L260.738 519.354L285.848 548.442L287.112 549.915L285.848 551.388L260.738 580.476L235.627 609.564L234.364 611.037L235.627 612.51L260.738 641.598L285.848 670.686L287.112 672.159L285.848 673.632L260.738 702.72L235.627 731.808L234.364 733.281L235.627 734.754L260.738 763.842L285.848 792.93L287.112 794.403L285.848 795.876L260.738 824.596L235.627 853.684L234.364 855.157L235.627 856.63L260.738 885.718L285.848 914.807L287.112 916.279L285.848 917.752L260.738 946.841L235.627 975.929L234.364 977.401L235.627 978.874L243.919 988.448H248.893L239.339 977.401L263.186 949.786L287.033 922.171L310.88 949.786L334.727 977.401L325.172 988.448H330.147L338.438 978.874L339.701 977.401L338.438 975.929L313.328 946.841L288.217 917.752L286.954 916.279L288.217 914.807L313.328 885.718L338.438 856.63L339.701 855.157L338.438 853.684L313.486 824.596L288.375 795.508L287.112 794.035L288.375 792.562L313.486 763.474L338.596 734.386L339.859 732.913L338.596 731.44L313.486 702.352L288.375 673.264L287.112 671.791L288.375 670.318L313.486 641.23L338.596 612.142L339.859 610.669L338.596 609.196L313.486 580.108L288.375 551.02L287.112 549.547L288.375 548.074L313.486 518.986L338.596 489.897L339.859 488.425L338.596 486.952L313.486 457.864L288.375 428.775L287.112 427.302L288.375 425.83L313.486 396.741L338.596 367.653L339.859 366.18L338.596 364.708L313.486 335.619L288.375 306.531L287.112 305.058L288.375 303.585L313.486 274.497L338.596 245.409L339.859 243.936L338.596 242.463L313.486 213.375L288.375 184.287L287.112 182.814L288.375 181.341L313.486 152.253L338.596 123.165L339.859 121.692L338.596 120.219L313.486 91.1309L288.375 62.0426L287.112 60.5698L288.375 59.097L313.486 30.0087L338.596 0.920514L339.78 0ZM365.207 0H363.943L363.312 0.736411L338.201 29.8246L313.091 58.8208L311.827 60.2936L313.091 61.7665L338.201 90.8547L363.312 119.943L364.575 121.416L363.312 122.889L338.201 151.977L313.091 181.065L311.827 182.538L313.091 184.011L338.201 213.099L363.312 242.187L364.575 243.66L363.312 245.133L338.201 274.129L313.091 303.217L311.827 304.69L313.091 306.163L338.201 335.251L363.312 364.339L364.575 365.812L363.312 367.285L338.201 396.373L313.091 425.369L311.827 426.842L313.091 428.315L338.201 457.403L363.312 486.492L364.575 487.964L363.312 489.437L338.201 518.525L313.091 547.522L311.827 548.994L313.091 550.467L338.201 579.555L363.312 608.644L364.575 610.116L363.312 611.589L338.201 640.678L313.091 669.674L311.827 671.147L313.091 672.619L338.201 701.708L363.312 730.796L364.575 732.269L363.312 733.741L338.201 762.83L313.091 791.826L311.827 793.299L313.091 794.772L338.201 823.86L363.312 852.948L364.575 854.421L363.312 855.894L338.201 884.982L313.091 913.978L311.827 915.451L313.091 916.924L338.201 946.012L363.312 975.1L364.575 976.573L363.312 978.046L354.389 988.356H359.363L364.496 982.372L369.629 988.356H374.603L365.68 978.046L364.417 976.573L365.68 975.1L390.791 946.012L415.901 916.924L417.165 915.451L415.901 913.978L390.791 884.89L365.68 855.802L364.417 854.329L365.68 852.856L390.791 823.768L415.901 794.68L417.165 793.207L415.901 791.734L390.791 762.646L365.68 733.557L364.417 732.085L365.68 730.612L390.791 701.524L415.901 672.435L417.165 670.962L415.901 669.49L390.791 640.401L365.68 611.313L364.417 609.84L365.68 608.368L390.791 579.279L415.901 550.191L417.165 548.718L415.901 547.245L390.791 518.157L365.68 489.069L364.417 487.596L365.68 486.123L390.791 457.035L415.901 427.947L417.165 426.474L415.901 425.001L390.791 395.913L365.68 366.825L364.417 365.352L365.68 363.879L390.791 334.791L415.901 305.703L417.165 304.23L415.901 302.757L390.949 274.129L365.838 245.041L364.575 243.568L365.838 242.095L390.949 213.007L416.059 183.919L417.323 182.446L416.059 180.973L390.949 151.885L365.838 122.797L364.575 121.324L365.838 119.851L390.949 90.7627L416.059 61.6744L417.323 60.2016L416.059 58.7288L390.949 29.6405L365.759 0.64436L365.207 0ZM495.733 0H490.759L466.912 27.6154L443.065 55.2308L419.218 27.6154L395.213 0H390.238L391.502 1.47282L416.612 30.5611L441.722 59.6493L442.986 61.1221L441.722 62.5949L416.612 91.6832L391.502 120.771L390.238 122.244L391.502 123.717L416.612 152.805L441.722 181.894L442.986 183.366L441.722 184.839L416.612 213.927L391.502 242.832L390.238 244.304L391.502 245.777L416.612 274.865L441.722 303.954L442.986 305.426L441.722 306.899L416.612 335.988L391.502 365.076L390.238 366.549L391.502 368.021L416.612 397.11L441.722 426.198L442.986 427.671L441.722 429.143L416.612 458.232L391.502 487.32L390.238 488.793L391.502 490.266L416.612 519.354L441.722 548.442L442.986 549.915L441.722 551.388L416.612 580.476L391.502 609.564L390.238 611.037L391.502 612.51L416.612 641.598L441.722 670.686L442.986 672.159L441.722 673.632L416.612 702.72L391.502 731.808L390.238 733.281L391.502 734.754L416.612 763.842L441.722 792.93L442.986 794.403L441.722 795.876L416.612 824.596L391.502 853.684L390.238 855.157L391.502 856.63L416.612 885.718L441.722 914.807L442.986 916.279L441.722 917.752L416.612 946.841L391.502 975.929L390.238 977.401L391.502 978.874L399.793 988.448H404.767L395.213 977.401L419.06 949.786L442.907 922.171L466.754 949.786L490.601 977.401L481.046 988.448H486.021L494.312 978.874L495.576 977.401L494.312 975.929L469.202 946.841L444.091 917.752L442.828 916.279L444.091 914.807L469.202 885.718L494.312 856.63L495.576 855.157L494.312 853.684L469.36 824.596L444.249 795.508L442.986 794.035L444.249 792.562L469.36 763.474L494.47 734.386L495.733 732.913L494.47 731.44L469.36 702.352L444.249 673.264L442.986 671.791L444.249 670.318L469.36 641.23L494.47 612.142L495.733 610.669L494.47 609.196L469.36 580.108L444.249 551.02L442.986 549.547L444.249 548.074L469.36 518.986L494.47 489.897L495.733 488.425L494.47 486.952L469.36 457.864L444.249 428.775L442.986 427.302L444.249 425.83L469.36 396.741L494.47 367.653L495.733 366.18L494.47 364.708L469.36 335.619L444.249 306.531L442.986 305.058L444.249 303.585L469.36 274.497L494.47 245.409L495.733 243.936L494.47 242.463L469.36 213.375L444.249 184.287L442.986 182.814L444.249 181.341L469.36 152.253L494.47 123.165L495.733 121.692L494.47 120.219L469.36 91.1309L444.249 62.0426L442.986 60.5698L444.249 59.097L469.36 30.0087L494.47 0.920514L495.733 0ZM521.081 0H519.817L519.186 0.64436L494.075 29.7326L468.965 58.8208L467.701 60.2936L468.965 61.7665L494.075 90.8547L519.186 119.943L520.449 121.416L519.186 122.889L494.075 151.977L468.965 181.065L467.701 182.538L468.965 184.011L494.075 213.099L519.186 242.187L520.449 243.66L519.186 245.133L494.075 274.129L468.965 303.217L467.701 304.69L468.965 306.163L494.075 335.251L519.186 364.339L520.449 365.812L519.186 367.285L494.075 396.373L468.965 425.461L467.701 426.934L468.965 428.407L494.075 457.495L519.186 486.584L520.449 488.056L519.186 489.529L494.075 518.617L468.965 547.522L467.701 548.994L468.965 550.467L494.075 579.555L519.186 608.644L520.449 610.116L519.186 611.589L494.075 640.678L468.965 669.766L467.701 671.239L468.965 672.711L494.075 701.8L519.186 730.888L520.449 732.361L519.186 733.834L494.075 762.922L468.965 792.01L467.701 793.483L468.965 794.956L494.075 824.044L519.186 853.132L520.449 854.605L519.186 856.078L494.075 885.166L468.965 914.254L467.701 915.727L468.965 917.2L494.075 946.288L519.186 975.376L520.449 976.849L519.186 978.322L510.263 988.632H515.237L520.37 982.648L525.503 988.632H530.477L521.555 978.322L520.291 976.849L521.555 975.376L546.665 946.288L571.775 917.2L573.039 915.727L571.775 914.254L546.823 884.89L521.713 855.802L520.449 854.329L521.713 852.856L546.823 823.768L571.933 794.68L573.197 793.207L571.933 791.734L546.823 762.738L521.713 733.649L520.449 732.177L521.713 730.704L546.823 701.616L571.933 672.527L573.197 671.055L571.933 669.582L546.823 640.585L521.713 611.497L520.449 610.024L521.713 608.552L546.823 579.463L571.933 550.375L573.197 548.902L571.933 547.43L546.823 518.433L521.713 489.345L520.449 487.872L521.713 486.399L546.823 457.311L571.933 428.223L573.197 426.75L571.933 425.277L546.823 396.281L521.713 367.193L520.449 365.72L521.713 364.247L546.823 335.159L571.933 306.071L573.197 304.598L571.933 303.125L546.823 274.129L521.713 245.041L520.449 243.568L521.713 242.095L546.823 213.007L571.933 183.919L573.197 182.446L571.933 180.973L546.823 151.977L521.713 122.889L520.449 121.416L521.713 119.943L546.823 90.8547L571.933 61.7665L573.197 60.2936L571.933 58.8208L546.823 29.7326L521.713 0.64436L521.081 0ZM651.608 0H646.633L622.786 27.6154L598.939 55.2308L575.092 27.6154L551.245 0H546.27L547.534 1.47282L572.644 30.5611L597.755 59.6493L599.018 61.1221L597.755 62.5949L572.644 91.6832L547.534 120.771L546.27 122.244L547.534 123.717L572.644 152.805L597.755 181.894L599.018 183.366L597.755 184.839L572.644 213.927L547.376 242.832L546.112 244.304L547.376 245.777L572.486 274.865L597.597 303.954L598.86 305.426L597.597 306.899L572.486 335.988L547.376 365.076L546.112 366.549L547.376 368.021L572.486 397.11L597.597 426.198L598.86 427.671L597.597 429.143L572.486 458.232L547.376 487.32L546.112 488.793L547.376 490.266L572.486 519.354L597.597 548.442L598.86 549.915L597.597 551.388L572.486 580.476L547.376 609.564L546.112 611.037L547.376 612.51L572.486 641.598L597.597 670.686L598.86 672.159L597.597 673.632L572.486 702.72L547.376 731.808L546.112 733.281L547.376 734.754L572.486 763.842L597.597 792.93L598.86 794.403L597.597 795.876L572.486 824.596L547.376 853.684L546.112 855.157L547.376 856.63L572.486 885.718L597.597 914.807L598.86 916.279L597.597 917.752L572.486 946.841L547.376 975.929L546.112 977.401L547.376 978.874L555.667 988.448H560.642L551.087 977.401L574.934 949.786L598.781 922.171L622.628 949.786L646.475 977.401L636.92 988.448H641.895L650.186 978.874L651.45 977.401L650.186 975.929L625.076 946.841L599.965 917.752L598.702 916.279L599.965 914.807L625.076 885.718L650.186 856.63L651.45 855.157L650.186 853.684L625.234 824.596L600.123 795.508L598.86 794.035L600.123 792.562L625.234 763.474L650.344 734.386L651.608 732.913L650.344 731.44L625.234 702.352L600.123 673.264L598.86 671.791L600.123 670.318L625.234 641.23L650.344 612.142L651.608 610.669L650.344 609.196L625.234 580.108L600.123 551.02L598.86 549.547L600.123 548.074L625.234 518.986L650.344 489.897L651.608 488.425L650.344 486.952L625.234 457.864L600.123 428.775L598.86 427.302L600.123 425.83L625.234 396.741L650.344 367.653L651.608 366.18L650.344 364.708L625.234 335.619L600.123 306.531L598.86 305.058L600.123 303.585L625.234 274.497L650.344 245.409L651.608 243.936L650.344 242.463L625.234 213.375L600.123 184.287L598.86 182.814L600.123 181.341L625.234 152.253L650.344 123.165L651.608 121.692L650.344 120.219L625.234 91.1309L600.123 62.0426L598.86 60.5698L600.123 59.097L625.234 30.0087L650.344 0.920514L651.608 0ZM676.955 0H675.692L675.06 0.736411L649.949 29.8246L624.839 58.9129L623.576 60.3857L624.839 61.8585L649.949 90.9468L675.06 120.035L676.323 121.508L675.06 122.981L649.949 152.069L624.839 181.157L623.576 182.63L624.839 184.103L649.949 213.191L675.06 242.279L676.323 243.752L675.06 245.225L649.949 274.129L624.839 303.217L623.576 304.69L624.839 306.163L649.949 335.251L675.06 364.339L676.323 365.812L675.06 367.285L649.949 396.373L624.839 425.461L623.576 426.934L624.839 428.407L649.949 457.495L675.06 486.584L676.323 488.056L675.06 489.529L649.949 518.617L624.839 547.522L623.576 548.994L624.839 550.467L649.949 579.555L675.06 608.644L676.323 610.116L675.06 611.589L649.949 640.678L624.839 669.766L623.576 671.239L624.839 672.711L649.949 701.8L675.06 730.888L676.323 732.361L675.06 733.834L649.949 762.922L624.839 792.01L623.576 793.483L624.839 794.956L649.949 824.044L675.06 853.132L676.323 854.605L675.06 856.078L649.949 885.166L624.839 914.254L623.576 915.727L624.839 917.2L649.949 946.288L675.06 975.376L676.323 976.849L675.06 978.322L666.137 988.632H671.112L676.244 982.648L681.377 988.632H686.352L677.429 978.322L676.165 976.849L677.429 975.376L702.539 946.288L727.65 917.2L728.913 915.727L727.65 914.254L702.539 885.166L677.429 856.078L676.165 854.605L677.429 853.132L702.539 824.044L727.65 794.956L728.913 793.483L727.65 792.01L702.539 762.922L677.429 733.834L676.165 732.361L677.429 730.888L702.539 701.8L727.65 672.711L728.913 671.239L727.65 669.766L702.539 640.678L677.429 611.589L676.165 610.116L677.429 608.644L702.539 579.555L727.65 550.467L728.913 548.994L727.65 547.522L702.539 518.433L677.429 489.345L676.165 487.872L677.429 486.399L702.539 457.311L727.65 428.223L728.913 426.75L727.65 425.277L702.539 396.189L677.429 367.101L676.165 365.628L677.429 364.155L702.539 335.067L727.65 305.979L728.913 304.506L727.65 303.033L702.697 274.129L677.587 245.041L676.323 243.568L677.587 242.095L702.697 213.007L727.808 183.919L729.071 182.446L727.808 180.973L702.697 151.885L677.587 122.797L676.323 121.324L677.587 119.851L702.697 90.7627L727.808 61.6744L729.071 60.2016L727.808 58.7288L702.697 29.6405L677.587 0.64436L676.955 0ZM807.482 0H802.507L778.66 27.6154L754.813 55.2308L730.966 27.6154L707.119 0H702.144L703.408 1.47282L728.518 30.5611L753.629 59.6493L754.892 61.1221L753.629 62.5949L728.518 91.6832L703.408 120.771L702.144 122.244L703.408 123.717L728.518 152.805L753.629 181.894L754.892 183.366L753.629 184.839L728.518 213.927L703.25 242.832L701.986 244.304L703.25 245.777L728.36 274.865L753.471 303.954L754.734 305.426L753.471 306.899L728.36 335.988L703.25 365.076L701.986 366.549L703.25 368.021L728.36 397.11L753.471 426.198L754.734 427.671L753.471 429.143L728.36 458.232L703.25 487.32L701.986 488.793L703.25 490.266L728.36 519.354L753.471 548.442L754.734 549.915L753.471 551.388L728.36 580.476L703.25 609.564L701.986 611.037L703.25 612.51L728.36 641.598L753.471 670.686L754.734 672.159L753.471 673.632L728.36 702.72L703.25 731.808L701.986 733.281L703.25 734.754L728.36 763.842L753.471 792.93L754.734 794.403L753.471 795.876L728.36 824.596L703.25 853.684L701.986 855.157L703.25 856.63L728.36 885.718L753.471 914.807L754.734 916.279L753.471 917.752L728.36 946.841L703.25 975.929L701.986 977.401L703.25 978.874L711.541 988.448H716.516L706.961 977.401L730.808 949.786L754.655 922.171L778.502 949.786L802.349 977.401L792.795 988.448H797.769L806.06 978.874L807.324 977.401L806.06 975.929L780.95 946.841L755.84 917.752L754.576 916.279L755.84 914.807L780.95 885.718L806.06 856.63L807.324 855.157L806.06 853.684L781.108 824.596L755.998 795.508L754.734 794.035L755.998 792.562L781.108 763.474L806.218 734.386L807.482 732.913L806.218 731.44L781.108 702.352L755.998 673.264L754.734 671.791L755.998 670.318L781.108 641.23L806.218 612.142L807.482 610.669L806.218 609.196L781.108 580.108L755.998 551.02L754.734 549.547L755.998 548.074L781.108 518.986L806.218 489.897L807.482 488.425L806.218 486.952L781.108 457.864L755.998 428.775L754.734 427.302L755.998 425.83L781.108 396.741L806.218 367.653L807.482 366.18L806.218 364.708L781.108 335.619L755.998 306.531L754.734 305.058L755.998 303.585L781.108 274.497L806.218 245.409L807.482 243.936L806.218 242.463L781.108 213.375L755.998 184.287L754.734 182.814L755.998 181.341L781.108 152.253L806.218 123.165L807.482 121.692L806.218 120.219L781.108 91.1309L755.998 62.0426L754.734 60.5698L755.998 59.097L781.108 30.0087L806.218 0.920514L807.482 0ZM832.829 0H831.566L830.934 0.736411L805.824 29.7326L780.713 58.8208L779.45 60.2936L780.713 61.7665L805.824 90.8547L830.934 119.943L832.197 121.416L830.934 122.889L805.824 151.977L780.713 181.065L779.45 182.538L780.713 184.011L805.824 213.099L830.934 242.187L832.197 243.66L830.934 245.133L805.824 274.129L780.713 303.217L779.45 304.69L780.713 306.163L805.824 335.251L830.934 364.339L832.197 365.812L830.934 367.285L805.824 396.373L780.713 425.461L779.45 426.934L780.713 428.407L805.824 457.311L830.934 486.399L832.197 487.872L830.934 489.345L805.824 518.433L780.713 547.522L779.45 548.994L780.713 550.467L805.824 579.555L830.934 608.644L832.197 610.116L830.934 611.589L805.824 640.678L780.713 669.766L779.45 671.239L780.713 672.711L805.824 701.8L830.934 730.888L832.197 732.361L830.934 733.834L805.824 762.922L780.713 792.01L779.45 793.483L780.713 794.956L805.824 824.044L830.934 853.132L832.197 854.605L830.934 856.078L805.824 885.166L780.713 914.254L779.45 915.727L780.713 917.2L805.824 946.288L830.934 975.376L832.197 976.849L830.934 978.322L822.011 988.632H826.986L832.118 982.648L837.251 988.632H842.226L833.303 978.322L832.039 976.849L833.303 975.376L858.413 946.288L883.524 917.2L884.787 915.727L883.524 914.254L858.413 885.166L833.303 856.078L832.039 854.605L833.303 853.132L858.413 824.044L883.524 794.956L884.787 793.483L883.524 792.01L858.413 762.922L833.303 733.834L832.039 732.361L833.303 730.888L858.413 701.8L883.524 672.711L884.787 671.239L883.524 669.766L858.413 640.678L833.303 611.589L832.039 610.116L833.303 608.644L858.413 579.555L883.524 550.467L884.787 548.994L883.524 547.522L858.413 518.433L833.303 489.345L832.039 487.872L833.303 486.399L858.413 457.311L883.524 428.223L884.787 426.75L883.524 425.277L858.413 396.189L833.303 367.101L832.039 365.628L833.303 364.155L858.413 335.067L883.524 305.979L884.787 304.506L883.524 303.033L858.413 273.945L833.303 244.857L832.039 243.384L833.303 241.911L858.413 212.823L883.524 183.735L884.787 182.262L883.524 180.789L858.413 151.701L833.303 122.612L832.039 121.14L833.303 119.667L858.413 90.5786L883.524 61.4903L884.787 60.0175L883.524 58.5447L858.413 29.4564L833.461 0.64436L832.829 0ZM963.356 0H958.381L934.534 27.6154L910.687 55.2308L886.84 27.6154L862.993 0H858.018L859.282 1.47282L884.392 30.5611L909.503 59.6493L910.766 61.1221L909.503 62.5949L884.392 91.6832L859.282 120.771L858.018 122.244L859.282 123.717L884.392 152.805L909.503 181.894L910.766 183.366L909.503 184.839L884.392 213.927L859.282 243.016L858.018 244.488L859.282 245.961L884.392 275.049L909.503 304.138L910.766 305.611L909.503 307.083L884.392 336.172L859.282 365.26L858.018 366.733L859.282 368.205L884.392 397.294L909.503 426.382L910.766 427.855L909.503 429.328L884.392 458.416L859.282 487.504L858.018 488.977L859.282 490.45L884.392 519.538L909.503 548.626L910.766 550.099L909.503 551.572L884.392 580.66L859.282 609.748L858.018 611.221L859.282 612.694L884.392 641.782L909.503 670.87L910.766 672.343L909.503 673.816L884.392 702.904L859.282 731.993L858.018 733.465L859.282 734.938L884.392 764.026L909.503 793.115L910.766 794.587L909.503 796.06L884.392 825.149L859.282 854.237L858.018 855.71L859.282 857.182L884.392 886.271L909.503 915.359L910.766 916.832L909.503 918.304L884.392 947.393L859.282 976.481L858.018 977.954L859.282 979.427L867.573 989H872.548L862.993 977.954L886.84 950.338L910.687 922.723L934.534 950.338L958.381 977.954L948.827 989H953.801L962.093 979.427L963.356 977.954L962.093 976.481L936.982 947.393L911.872 918.304L910.608 916.832L911.872 915.359L936.982 886.271L962.093 857.182L963.356 855.71L962.093 854.237L936.982 825.149L911.872 796.06L910.608 794.587L911.872 793.115L936.982 764.026L962.093 734.938L963.356 733.465L962.093 731.993L936.982 702.904L911.872 673.816L910.608 672.343L911.872 670.87L936.982 641.782L962.093 612.694L963.356 611.221L962.093 609.748L936.982 580.66L911.872 551.572L910.608 550.099L911.872 548.626L936.982 519.538L962.093 490.45L963.356 488.977L962.093 487.504L936.982 458.416L911.872 429.328L910.608 427.855L911.872 426.382L936.982 397.294L962.093 368.205L963.356 366.733L962.093 365.26L936.982 336.172L911.872 307.083L910.608 305.611L911.872 304.138L936.982 275.049L962.093 245.961L963.356 244.488L962.093 243.016L936.982 213.927L911.872 184.839L910.608 183.366L911.872 181.894L936.982 152.805L962.093 123.717L963.356 122.244L962.093 120.771L936.982 91.6832L911.872 62.5949L910.608 61.1221L911.872 59.6493L936.982 30.5611L962.093 1.47282L963.356 0ZM988.703 0H987.44L986.808 0.736411L961.698 29.8246L936.587 58.9129L935.324 60.3857L936.587 61.8585L961.698 90.9468L986.808 120.035L988.072 121.508L986.808 122.981L961.698 152.069L936.587 181.157L935.324 182.63L936.587 184.103L961.698 213.191L986.808 242.279L988.072 243.752L986.808 245.225L961.698 274.313L936.587 303.401L935.324 304.874L936.587 306.347L961.698 335.435L986.808 364.523L988.072 365.996L986.808 367.469L961.698 396.557L936.587 425.646L935.324 427.118L936.587 428.591L961.698 457.679L986.808 486.768L988.072 488.24L986.808 489.713L961.698 518.802L936.587 547.89L935.324 549.363L936.587 550.835L961.698 579.924L986.808 609.012L988.072 610.485L986.808 611.958L961.698 641.046L936.587 670.134L935.324 671.607L936.587 673.08L961.698 702.168L986.808 731.256L988.072 732.729L986.808 734.202L961.698 763.29L936.587 792.378L935.324 793.851L936.587 795.324L961.698 824.412L986.808 853.5L988.072 854.973L986.808 856.446L961.698 885.534L936.587 914.622L935.324 916.095L936.587 917.568L961.698 946.656L986.808 975.745L988.072 977.217L986.808 978.69L977.885 989H982.86L987.993 983.017L993.125 989H998.1L989.177 978.69L987.914 977.217L989.177 975.745L1014.29 946.656L1039.4 917.568L1040.66 916.095L1039.4 914.622L1014.29 885.534L989.177 856.446L987.914 854.973L989.177 853.5L1014.29 824.412L1039.4 795.324L1040.66 793.851L1039.4 792.378L1014.29 763.29L989.177 734.202L987.914 732.729L989.177 731.256L1014.29 702.168L1039.4 673.08L1040.66 671.607L1039.4 670.134L1014.29 641.046L989.177 611.958L987.914 610.485L989.177 609.012L1014.29 579.924L1039.4 550.835L1040.66 549.363L1039.4 547.89L1014.29 518.802L989.177 489.713L987.914 488.24L989.177 486.768L1014.29 457.679L1039.4 428.591L1040.66 427.118L1039.4 425.646L1014.29 396.557L989.177 367.469L987.914 365.996L989.177 364.523L1014.29 335.435L1039.4 306.347L1040.66 304.874L1039.4 303.401L1014.29 274.313L989.177 245.225L987.914 243.752L989.177 242.279L1014.29 213.191L1039.56 183.919L1040.82 182.446L1039.56 180.973L1014.45 151.885L989.335 122.797L988.072 121.324L989.335 119.851L1014.45 90.7627L1039.56 61.6744L1040.82 60.2016L1039.56 58.7288L1014.45 29.6405L989.335 0.552308L988.703 0ZM1119.23 0H1114.26L1090.41 27.6154L1066.56 55.2308L1042.71 27.6154L1018.87 0H1013.89L1015.16 1.47282L1040.27 30.5611L1065.38 59.6493L1066.64 61.1221L1065.38 62.5949L1040.27 91.6832L1015.16 120.771L1013.89 122.244L1015.16 123.717L1040.27 152.805L1065.38 181.894L1066.64 183.366L1065.38 184.839L1040.27 213.927L1015.08 242.832L1013.81 244.304L1015.08 245.777L1040.19 274.865L1065.3 303.954L1066.56 305.426L1065.3 306.899L1040.19 335.988L1015.08 365.076L1013.81 366.549L1015.08 368.021L1040.19 397.11L1065.3 426.198L1066.56 427.671L1065.3 429.143L1040.19 458.232L1015.08 487.32L1013.81 488.793L1015.08 490.266L1040.19 519.354L1065.3 548.442L1066.56 549.915L1065.3 551.388L1040.19 580.476L1015.08 609.564L1013.81 611.037L1015.08 612.51L1040.19 641.598L1065.3 670.686L1066.56 672.159L1065.3 673.632L1040.19 702.72L1015.08 731.808L1013.81 733.281L1015.08 734.754L1040.19 763.842L1065.3 792.93L1066.56 794.403L1065.3 795.876L1040.19 824.964L1015.08 854.053L1013.81 855.525L1015.08 856.998L1040.19 886.087L1065.3 915.175L1066.56 916.648L1065.3 918.12L1040.19 947.209L1015.08 976.297L1013.81 977.77L1015.08 979.243L1023.37 988.816H1028.34L1018.79 977.77L1042.64 950.154L1066.48 922.539L1090.33 950.154L1114.18 977.77L1104.62 988.816H1109.6L1117.89 979.243L1119.15 977.77L1117.89 976.297L1092.78 947.209L1067.67 918.12L1066.4 916.648L1067.67 915.175L1092.78 886.087L1117.89 856.998L1119.15 855.525L1117.89 854.053L1092.78 824.964L1067.67 795.876L1066.4 794.403L1067.67 792.93L1092.78 763.842L1117.89 734.754L1119.15 733.281L1117.89 731.808L1092.78 702.72L1067.67 673.632L1066.4 672.159L1067.67 670.686L1092.78 641.598L1117.89 612.51L1119.15 611.037L1117.89 609.564L1092.78 580.476L1067.67 551.388L1066.4 549.915L1067.67 548.442L1092.78 519.354L1117.89 490.266L1119.15 488.793L1117.89 487.32L1092.78 458.232L1067.67 429.143L1066.4 427.671L1067.67 426.198L1092.78 397.11L1117.89 368.021L1119.15 366.549L1117.89 365.076L1092.78 335.988L1067.67 306.899L1066.4 305.426L1067.67 303.954L1092.78 274.865L1117.89 245.777L1119.15 244.304L1117.89 242.832L1092.78 213.743L1067.67 184.655L1066.4 183.182L1067.67 181.709L1092.78 152.621L1117.89 123.533L1119.15 122.06L1117.89 120.587L1092.78 91.4991L1067.67 62.4108L1066.4 60.938L1067.67 59.4652L1092.78 30.377L1117.89 1.28872L1119.23 0ZM1144.58 0H1143.31L1142.68 0.736411L1117.57 29.8246L1092.46 58.9129L1091.2 60.3857L1092.46 61.8585L1117.57 90.9468L1142.68 120.035L1143.95 121.508L1142.68 122.981L1117.57 152.069L1092.46 181.157L1091.2 182.63L1092.46 184.103L1117.57 213.191L1142.68 242.279L1143.95 243.752L1142.68 245.225L1117.57 274.313L1092.46 303.401L1091.2 304.874L1092.46 306.347L1117.57 335.435L1142.68 364.523L1143.95 365.996L1142.68 367.469L1117.57 396.557L1092.46 425.646L1091.2 427.118L1092.46 428.591L1117.57 457.679L1142.68 486.768L1143.95 488.24L1142.68 489.713L1117.57 518.802L1092.46 547.89L1091.2 549.363L1092.46 550.835L1117.57 579.924L1142.68 609.012L1143.95 610.485L1142.68 611.958L1117.57 641.046L1092.46 670.134L1091.2 671.607L1092.46 673.08L1117.57 702.168L1142.68 731.256L1143.95 732.729L1142.68 734.202L1117.57 763.29L1092.46 792.378L1091.2 793.851L1092.46 795.324L1117.57 824.412L1142.68 853.5L1143.95 854.973L1142.68 856.446L1117.57 885.534L1092.46 914.622L1091.2 916.095L1092.46 917.568L1117.57 946.656L1142.68 975.745L1143.95 977.217L1142.68 978.69L1133.76 989H1138.73L1143.87 983.017L1149 989H1153.97L1145.05 978.69L1143.79 977.217L1145.05 975.745L1170.16 946.656L1195.27 917.568L1196.54 916.095L1195.27 914.622L1170.16 885.534L1145.05 856.446L1143.79 854.973L1145.05 853.5L1170.16 824.412L1195.27 795.324L1196.54 793.851L1195.27 792.378L1170.16 763.29L1145.05 734.202L1143.79 732.729L1145.05 731.256L1170.16 702.168L1195.27 673.08L1196.54 671.607L1195.27 670.134L1170.16 641.046L1145.05 611.958L1143.79 610.485L1145.05 609.012L1170.16 579.924L1195.27 550.835L1196.54 549.363L1195.27 547.89L1170.16 518.802L1145.05 489.713L1143.79 488.24L1145.05 486.768L1170.16 457.679L1195.27 428.591L1196.54 427.118L1195.27 425.646L1170.16 396.557L1145.05 367.469L1143.79 365.996L1145.05 364.523L1170.16 335.435L1195.27 306.347L1196.54 304.874L1195.27 303.401L1170.16 274.313L1145.05 245.225L1143.79 243.752L1145.05 242.279L1170.16 213.191L1195.27 184.103L1196.54 182.63L1195.27 181.157L1170.16 152.069L1145.05 122.981L1143.79 121.508L1145.05 120.035L1170.16 90.9468L1195.27 61.8585L1196.54 60.3857L1195.27 58.9129L1170.16 29.8246L1145.05 0.736411L1144.58 0ZM1275.18 0H1270.21L1246.36 27.6154L1222.51 55.2308L1198.67 27.6154L1174.82 0H1169.85L1171.11 1.47282L1196.22 30.5611L1221.33 59.6493L1222.59 61.1221L1221.33 62.5949L1196.22 91.6832L1171.11 120.771L1169.85 122.244L1171.11 123.717L1196.22 152.805L1221.33 181.894L1222.59 183.366L1221.33 184.839L1196.22 213.927L1171.11 243.016L1169.85 244.488L1171.11 245.961L1196.22 275.049L1221.33 304.138L1222.59 305.611L1221.33 307.083L1196.22 336.172L1171.11 365.26L1169.85 366.733L1171.11 368.205L1196.22 397.294L1221.33 426.382L1222.59 427.855L1221.33 429.328L1196.22 458.416L1171.11 487.504L1169.85 488.977L1171.11 490.45L1196.22 519.538L1221.33 548.626L1222.59 550.099L1221.33 551.572L1196.22 580.66L1171.11 609.748L1169.85 611.221L1171.11 612.694L1196.22 641.782L1221.33 670.87L1222.59 672.343L1221.33 673.816L1196.22 702.904L1171.11 731.993L1169.85 733.465L1171.11 734.938L1196.22 764.026L1221.33 793.115L1222.59 794.587L1221.33 796.06L1196.22 825.149L1171.11 854.237L1169.85 855.71L1171.11 857.182L1196.22 886.271L1221.33 915.359L1222.59 916.832L1221.33 918.304L1196.22 947.393L1171.11 976.481L1169.85 977.954L1171.11 979.427L1179.4 989H1184.38L1174.82 977.954L1198.67 950.338L1222.51 922.723L1246.36 950.338L1270.21 977.954L1260.65 989H1265.63L1273.92 979.427L1275.18 977.954L1273.92 976.481L1248.81 947.393L1223.7 918.304L1222.44 916.832L1223.7 915.359L1248.81 886.271L1273.92 857.182L1275.18 855.71L1273.92 854.237L1248.81 824.596L1223.7 795.508L1222.44 794.035L1223.7 792.562L1248.81 763.474L1273.92 734.386L1275.18 732.913L1273.92 731.44L1248.81 702.352L1223.7 673.264L1222.44 671.791L1223.7 670.318L1248.81 641.23L1273.92 612.142L1275.18 610.669L1273.92 609.196L1248.81 580.108L1223.7 551.02L1222.44 549.547L1223.7 548.074L1248.81 518.986L1273.92 489.897L1275.18 488.425L1273.92 486.952L1248.81 457.864L1223.7 428.775L1222.44 427.302L1223.7 425.83L1248.81 396.741L1273.92 367.653L1275.18 366.18L1273.92 364.708L1248.81 335.619L1223.7 306.531L1222.44 305.058L1223.7 303.585L1248.81 274.497L1273.92 245.409L1275.18 243.936L1273.92 242.463L1248.81 213.375L1223.7 184.287L1222.44 182.814L1223.7 181.341L1248.81 152.621L1273.92 123.533L1275.18 122.06L1273.92 120.587L1248.81 91.5911L1223.7 62.5029L1222.44 61.0301L1223.7 59.5572L1248.81 30.469L1273.92 1.38077L1275.18 0ZM1300.53 0H1299.27L1298.64 0.736411L1273.53 29.8246L1248.41 58.9129L1247.15 60.3857L1248.41 61.8585L1273.53 90.9468L1298.64 120.035L1299.9 121.508L1298.64 122.981L1273.53 152.069L1248.41 181.157L1247.15 182.63L1248.41 184.103L1273.53 213.191L1298.64 242.279L1299.9 243.752L1298.64 245.225L1273.53 274.313L1248.41 303.401L1247.15 304.874L1248.41 306.347L1273.53 335.435L1298.64 364.523L1299.9 365.996L1298.64 367.469L1273.53 396.557L1248.41 425.646L1247.15 427.118L1248.41 428.591L1273.53 457.679L1298.64 486.768L1299.9 488.24L1298.64 489.713L1273.53 518.802L1248.41 547.89L1247.15 549.363L1248.41 550.835L1273.53 579.924L1298.64 609.012L1299.9 610.485L1298.64 611.958L1273.53 641.046L1248.41 670.134L1247.15 671.607L1248.41 673.08L1273.53 702.168L1298.64 731.256L1299.9 732.729L1298.64 734.202L1273.53 763.29L1248.41 792.378L1247.15 793.851L1248.41 795.324L1273.53 824.412L1298.64 853.5L1299.9 854.973L1298.64 856.446L1273.53 885.534L1248.41 914.622L1247.15 916.095L1248.41 917.568L1273.53 946.656L1298.64 975.745L1299.9 977.217L1298.64 978.69L1289.71 989H1294.69L1299.82 983.017L1304.95 989H1309.93L1301 978.69L1299.74 977.217L1301 975.745L1326.11 946.656L1351.23 917.568L1352.49 916.095L1351.23 914.622L1326.11 885.534L1301 856.446L1299.74 854.973L1301 853.5L1326.11 824.412L1351.23 795.324L1352.49 793.851L1351.23 792.378L1326.11 763.29L1301 734.202L1299.74 732.729L1301 731.256L1326.11 702.168L1351.23 673.08L1352.49 671.607L1351.23 670.134L1326.11 641.046L1301 611.958L1299.74 610.485L1301 609.012L1326.11 579.924L1351.23 550.835L1352.49 549.363L1351.23 547.89L1326.11 518.802L1301 489.713L1299.74 488.24L1301 486.768L1326.11 457.679L1351.23 428.591L1352.49 427.118L1351.23 425.646L1326.11 396.557L1301 367.469L1299.74 365.996L1301 364.523L1326.11 335.435L1351.23 306.347L1352.49 304.874L1351.23 303.401L1326.11 274.313L1301 245.225L1299.74 243.752L1301 242.279L1326.11 213.191L1351.23 184.103L1352.49 182.63L1351.23 181.157L1326.11 152.069L1301 122.981L1299.74 121.508L1301 120.035L1326.11 90.9468L1351.23 61.8585L1352.49 60.3857L1351.23 58.9129L1326.11 29.8246L1301 0.736411L1300.53 0ZM1431.06 0H1426.08L1402.24 27.6154L1378.39 55.2308L1354.54 27.6154L1330.69 0H1325.72L1326.98 1.47282L1352.09 30.5611L1377.2 59.6493L1378.47 61.1221L1377.2 62.5949L1352.09 91.6832L1326.98 120.771L1325.72 122.244L1326.98 123.717L1352.09 152.805L1377.2 181.894L1378.47 183.366L1377.2 184.839L1352.09 213.927L1326.98 243.016L1325.72 244.488L1326.98 245.961L1352.09 275.049L1377.2 304.138L1378.47 305.611L1377.2 307.083L1352.09 336.172L1326.98 365.26L1325.72 366.733L1326.98 368.205L1352.09 397.294L1377.2 426.382L1378.47 427.855L1377.2 429.328L1352.09 458.416L1326.98 487.504L1325.72 488.977L1326.98 490.45L1352.09 519.538L1377.2 548.626L1378.47 550.099L1377.2 551.572L1352.09 580.66L1326.98 609.748L1325.72 611.221L1326.98 612.694L1352.09 641.782L1377.2 670.87L1378.47 672.343L1377.2 673.816L1352.09 702.904L1326.98 731.993L1325.72 733.465L1326.98 734.938L1352.09 764.026L1377.2 793.115L1378.47 794.587L1377.2 796.06L1352.09 825.149L1326.98 854.237L1325.72 855.71L1326.98 857.182L1352.09 886.271L1377.2 915.359L1378.47 916.832L1377.2 918.304L1352.09 947.393L1326.98 976.481L1325.72 977.954L1326.98 979.427L1335.27 989H1340.25L1330.69 977.954L1354.54 950.338L1378.39 922.723L1402.24 950.338L1426.08 977.954L1416.53 989H1421.5L1429.79 979.427L1431.06 977.954L1429.79 976.481L1404.68 947.393L1379.57 918.304L1378.31 916.832L1379.57 915.359L1404.68 886.271L1429.79 857.182L1431.06 855.71L1429.79 854.237L1404.68 825.149L1379.57 796.06L1378.31 794.587L1379.57 793.115L1404.68 764.026L1429.79 734.938L1431.06 733.465L1429.79 731.993L1404.68 702.904L1379.57 673.816L1378.31 672.343L1379.57 670.87L1404.68 641.782L1429.79 612.694L1431.06 611.221L1429.79 609.748L1404.68 580.66L1379.57 551.572L1378.31 550.099L1379.57 548.626L1404.68 519.538L1429.79 490.45L1431.06 488.977L1429.79 487.504L1404.68 458.416L1379.57 429.328L1378.31 427.855L1379.57 426.382L1404.68 397.294L1429.79 368.205L1431.06 366.733L1429.79 365.26L1404.68 336.172L1379.57 307.083L1378.31 305.611L1379.57 304.138L1404.68 275.049L1429.79 245.961L1431.06 244.488L1429.79 243.016L1404.68 213.927L1379.57 184.839L1378.31 183.366L1379.57 181.894L1404.68 152.805L1429.79 123.717L1431.06 122.244L1429.79 120.771L1404.68 91.6832L1379.57 62.5949L1378.31 61.1221L1379.57 59.6493L1404.68 30.5611L1429.79 1.47282L1431.06 0ZM1456.4 0H1455.14L1454.51 0.736411L1429.4 29.8246L1404.29 58.9129L1403.03 60.3857L1404.29 61.8585L1429.4 90.9468L1454.51 120.035L1455.77 121.508L1454.51 122.981L1429.4 152.069L1404.29 181.157L1403.03 182.63L1404.29 184.103L1429.4 213.191L1454.51 242.279L1455.77 243.752L1454.51 245.225L1429.4 274.313L1404.29 303.401L1403.03 304.874L1404.29 306.347L1429.4 335.435L1454.51 364.523L1455.77 365.996L1454.51 367.469L1429.4 396.557L1404.29 425.646L1403.03 427.118L1404.29 428.591L1429.4 457.679L1454.51 486.768L1455.77 488.24L1454.51 489.713L1429.4 518.802L1404.29 547.89L1403.03 549.363L1404.29 550.835L1429.4 579.924L1454.51 609.012L1455.77 610.485L1454.51 611.958L1429.4 641.046L1404.29 670.134L1403.03 671.607L1404.29 673.08L1429.4 702.168L1454.51 731.256L1455.77 732.729L1454.51 734.202L1429.4 763.29L1404.29 792.378L1403.03 793.851L1404.29 795.324L1429.4 824.412L1454.51 853.5L1455.77 854.973L1454.51 856.446L1429.4 885.534L1404.29 914.622L1403.03 916.095L1404.29 917.568L1429.4 946.656L1454.51 975.745L1455.77 977.217L1454.51 978.69L1445.59 989H1450.56L1455.69 983.017L1460.83 989H1465.8L1456.88 978.69L1455.62 977.217L1456.88 975.745L1481.99 946.656L1507.1 917.568L1508.36 916.095L1507.1 914.622L1481.99 885.534L1456.88 856.446L1455.62 854.973L1456.88 853.5L1481.99 824.412L1507.1 795.324L1508.36 793.851L1507.1 792.378L1481.99 763.29L1456.88 734.202L1455.62 732.729L1456.88 731.256L1481.99 702.168L1507.1 673.08L1508.36 671.607L1507.1 670.134L1481.99 641.046L1456.88 611.958L1455.62 610.485L1456.88 609.012L1481.99 579.924L1507.1 550.835L1508.36 549.363L1507.1 547.89L1481.99 518.802L1456.88 489.713L1455.62 488.24L1456.88 486.768L1481.99 457.679L1507.1 428.591L1508.36 427.118L1507.1 425.646L1481.99 396.557L1456.88 367.469L1455.62 365.996L1456.88 364.523L1481.99 335.435L1507.1 306.347L1508.36 304.874L1507.1 303.401L1481.99 274.313L1456.88 245.225L1455.62 243.752L1456.88 242.279L1481.99 213.191L1507.1 184.103L1508.36 182.63L1507.1 181.157L1481.99 152.069L1456.88 122.981L1455.62 121.508L1456.88 120.035L1481.99 90.9468L1507.1 61.8585L1508.36 60.3857L1507.1 58.9129L1481.99 29.8246L1456.88 0.736411L1456.4 0ZM1586.93 0H1581.96L1558.11 27.6154L1534.26 55.2308L1510.42 27.6154L1486.57 0H1481.59L1482.86 1.47282L1507.97 30.5611L1533.08 59.6493L1534.34 61.1221L1533.08 62.5949L1507.81 91.5911L1482.7 120.679L1481.44 122.152L1482.7 123.625L1507.81 152.621L1532.92 181.709L1534.18 183.182L1532.92 184.655L1507.81 213.743L1482.7 242.832L1481.44 244.304L1482.7 245.777L1507.81 274.865L1532.92 303.954L1534.18 305.426L1532.92 306.899L1507.81 335.988L1482.7 365.076L1481.44 366.549L1482.7 368.021L1507.81 397.11L1532.92 426.198L1534.18 427.671L1532.92 429.143L1507.81 458.232L1482.7 487.32L1481.44 488.793L1482.7 490.266L1507.81 519.354L1532.92 548.442L1534.18 549.915L1532.92 551.388L1507.81 580.476L1482.7 609.564L1481.44 611.037L1482.7 612.51L1507.81 641.598L1532.92 670.686L1534.18 672.159L1532.92 673.632L1507.81 702.72L1482.7 731.808L1481.44 733.281L1482.7 734.754L1507.81 763.842L1532.92 792.93L1534.18 794.403L1532.92 795.876L1507.81 824.596L1482.7 853.684L1481.44 855.157L1482.7 856.63L1507.81 885.718L1532.92 914.807L1534.18 916.279L1532.92 917.752L1507.81 946.841L1482.7 975.929L1481.44 977.401L1482.7 978.874L1490.99 988.448H1495.97L1486.41 977.401L1510.26 949.786L1534.1 922.171L1557.95 949.786L1581.8 977.401L1572.24 988.448H1577.22L1585.51 978.874L1586.77 977.401L1585.51 975.929L1560.4 946.841L1535.29 917.752L1534.03 916.279L1535.29 914.807L1560.4 885.718L1585.51 856.63L1586.77 855.157L1585.51 853.684L1560.4 824.596L1535.29 795.508L1534.03 794.035L1535.29 792.562L1560.4 763.474L1585.51 734.386L1586.77 732.913L1585.51 731.44L1560.4 702.352L1535.29 673.264L1534.03 671.791L1535.29 670.318L1560.4 641.23L1585.51 612.142L1586.77 610.669L1585.51 609.196L1560.4 580.108L1535.29 551.02L1534.03 549.547L1535.29 548.074L1560.4 518.986L1585.51 489.897L1586.77 488.425L1585.51 486.952L1560.4 457.864L1535.29 428.775L1534.03 427.302L1535.29 425.83L1560.4 396.741L1585.51 367.653L1586.77 366.18L1585.51 364.708L1560.4 335.619L1535.29 306.531L1534.03 305.058L1535.29 303.585L1560.4 274.497L1585.51 245.409L1586.77 243.936L1585.51 242.463L1560.4 213.375L1535.29 184.287L1534.03 182.814L1535.29 181.341L1560.4 152.253L1585.51 123.165L1586.77 121.692L1585.51 120.219L1560.4 91.1309L1535.45 62.5029L1534.18 61.0301L1535.45 59.5572L1560.56 30.469L1585.67 1.38077L1586.93 0ZM1612.28 0H1611.02L1610.38 0.736411L1585.27 29.8246L1560.16 58.9129L1558.9 60.3857L1560.16 61.8585L1585.27 90.9468L1610.38 120.035L1611.65 121.508L1610.38 122.981L1585.27 152.069L1560.16 181.157L1558.9 182.63L1560.16 184.103L1585.27 213.191L1610.38 242.279L1611.65 243.752L1610.38 245.225L1585.27 274.313L1560.16 303.401L1558.9 304.874L1560.16 306.347L1585.27 335.435L1610.38 364.523L1611.65 365.996L1610.38 367.469L1585.27 396.557L1560.16 425.646L1558.9 427.118L1560.16 428.591L1585.27 457.679L1610.38 486.768L1611.65 488.24L1610.38 489.713L1585.27 518.802L1560.16 547.89L1558.9 549.363L1560.16 550.835L1585.27 579.924L1610.38 609.012L1611.65 610.485L1610.38 611.958L1585.27 641.046L1560.16 670.134L1558.9 671.607L1560.16 673.08L1585.27 702.168L1610.38 731.256L1611.65 732.729L1610.38 734.202L1585.27 763.29L1560.16 792.378L1558.9 793.851L1560.16 795.324L1585.27 824.412L1610.38 853.5L1611.65 854.973L1610.38 856.446L1585.27 885.534L1560.16 914.622L1558.9 916.095L1560.16 917.568L1585.27 946.656L1610.38 975.745L1611.65 977.217L1610.38 978.69L1601.46 989H1606.44L1611.57 983.017L1616.7 989H1621.68L1612.75 978.69L1611.49 977.217L1612.75 975.745L1637.86 946.656L1662.97 917.568L1664.24 916.095L1662.97 914.622L1637.86 885.534L1612.75 856.446L1611.49 854.973L1612.75 853.5L1637.86 824.412L1662.97 795.324L1664.24 793.851L1662.97 792.378L1637.86 763.29L1612.75 734.202L1611.49 732.729L1612.75 731.256L1637.86 702.168L1662.97 673.08L1664.24 671.607L1662.97 670.134L1637.86 641.046L1612.75 611.958L1611.49 610.485L1612.75 609.012L1637.86 579.924L1662.97 550.835L1664.24 549.363L1662.97 547.89L1637.86 518.802L1612.75 489.713L1611.49 488.24L1612.75 486.768L1637.86 457.679L1662.97 428.591L1664.24 427.118L1662.97 425.646L1637.86 396.557L1612.75 367.469L1611.49 365.996L1612.75 364.523L1637.86 335.435L1662.97 306.347L1664.24 304.874L1662.97 303.401L1637.86 274.313L1612.75 245.225L1611.49 243.752L1612.75 242.279L1637.86 213.191L1662.97 184.103L1664.24 182.63L1662.97 181.157L1637.86 152.069L1612.75 122.981L1611.49 121.508L1612.75 120.035L1637.86 90.9468L1662.97 61.8585L1664.24 60.3857L1662.97 58.9129L1637.86 29.8246L1612.75 0.736411L1612.28 0ZM1742.81 0H1737.83L1713.98 27.6154L1690.14 55.2308L1666.29 27.6154L1642.44 0H1637.47L1638.73 1.47282L1663.84 30.5611L1688.95 59.6493L1690.22 61.1221L1688.95 62.5949L1663.84 91.6832L1638.73 120.771L1637.47 122.244L1638.73 123.717L1663.84 152.805L1688.95 181.894L1690.22 183.366L1688.95 184.839L1663.84 213.927L1638.73 243.016L1637.47 244.488L1638.73 245.961L1663.84 275.049L1688.95 304.138L1690.22 305.611L1688.95 307.083L1663.84 336.172L1638.73 365.26L1637.47 366.733L1638.73 368.205L1663.84 397.294L1688.95 426.382L1690.22 427.855L1688.95 429.328L1663.84 458.416L1638.73 487.504L1637.47 488.977L1638.73 490.45L1663.84 519.538L1688.95 548.626L1690.22 550.099L1688.95 551.572L1663.84 580.66L1638.73 609.748L1637.47 611.221L1638.73 612.694L1663.84 641.782L1688.95 670.87L1690.22 672.343L1688.95 673.816L1663.84 702.904L1638.73 731.993L1637.47 733.465L1638.73 734.938L1663.84 764.026L1688.95 793.115L1690.22 794.587L1688.95 796.06L1663.84 825.149L1638.73 854.237L1637.47 855.71L1638.73 857.182L1663.84 886.271L1688.95 915.359L1690.22 916.832L1688.95 918.304L1663.84 947.393L1638.73 976.481L1637.47 977.954L1638.73 979.427L1647.02 989H1652L1642.44 977.954L1666.29 950.338L1690.14 922.723L1713.98 950.338L1737.83 977.954L1728.28 989H1733.25L1741.54 979.427L1742.81 977.954L1741.54 976.481L1716.43 947.393L1691.32 918.304L1690.06 916.832L1691.32 915.359L1716.43 886.271L1741.54 857.182L1742.81 855.71L1741.54 854.237L1716.43 825.149L1691.32 796.06L1690.06 794.587L1691.32 793.115L1716.43 764.026L1741.54 734.386L1742.81 732.913L1741.54 731.44L1716.43 702.352L1691.32 673.264L1690.06 671.791L1691.32 670.318L1716.43 641.23L1741.54 612.142L1742.81 610.669L1741.54 609.196L1716.43 580.108L1691.32 551.02L1690.06 549.547L1691.32 548.074L1716.43 518.986L1741.54 489.897L1742.81 488.425L1741.54 486.952L1716.43 457.864L1691.32 428.775L1690.06 427.302L1691.32 425.83L1716.43 396.741L1741.54 367.653L1742.81 366.18L1741.54 364.708L1716.43 335.619L1691.32 306.531L1690.06 305.058L1691.32 303.585L1716.43 274.497L1741.54 245.409L1742.81 243.936L1741.54 242.463L1716.43 213.375L1691.32 184.287L1690.06 182.814L1691.32 181.341L1716.43 152.253L1741.54 123.165L1742.81 121.692L1741.54 120.219L1716.43 91.1309L1691.32 62.0426L1690.06 60.5698L1691.32 59.097L1716.43 30.0087L1741.54 1.38077L1742.81 0ZM1768.15 0H1766.89L1766.26 0.736411L1741.15 29.8246L1716.04 58.9129L1714.77 60.3857L1716.04 61.8585L1741.15 90.9468L1766.26 120.035L1767.52 121.508L1766.26 122.981L1741.15 152.069L1716.04 181.157L1714.77 182.63L1716.04 184.103L1741.15 213.191L1766.26 242.279L1767.52 243.752L1766.26 245.225L1741.15 274.313L1716.04 303.401L1714.77 304.874L1716.04 306.347L1741.15 335.435L1766.26 364.523L1767.52 365.996L1766.26 367.469L1741.15 396.557L1716.04 425.646L1714.77 427.118L1716.04 428.591L1741.15 457.679L1766.26 486.768L1767.52 488.24L1766.26 489.713L1741.15 518.802L1716.04 547.89L1714.77 549.363L1716.04 550.835L1741.15 579.924L1766.26 609.012L1767.52 610.485L1766.26 611.958L1741.15 641.046L1716.04 670.134L1714.77 671.607L1716.04 673.08L1741.15 702.168L1766.26 731.256L1767.52 732.729L1766.26 734.202L1741.15 763.29L1716.04 792.378L1714.77 793.851L1716.04 795.324L1741.15 824.412L1766.26 853.5L1767.52 854.973L1766.26 856.446L1741.15 885.534L1716.04 914.622L1714.77 916.095L1716.04 917.568L1741.15 946.656L1766.26 975.745L1767.52 977.217L1766.26 978.69L1757.33 989H1762.31L1767.44 983.017L1772.58 989H1777.55L1768.63 978.69L1767.36 977.217L1768.63 975.745L1793.74 946.656L1818.85 917.568L1820.11 916.095L1818.85 914.622L1793.74 885.534L1768.63 856.446L1767.36 854.973L1768.63 853.5L1793.74 824.412L1818.85 795.324L1820.11 793.851L1818.85 792.378L1793.74 763.29L1768.63 734.202L1767.36 732.729L1768.63 731.256L1793.74 702.168L1818.85 673.08L1820.11 671.607L1818.85 670.134L1793.74 641.046L1768.63 611.958L1767.36 610.485L1768.63 609.012L1793.74 579.924L1818.85 550.835L1820.11 549.363L1818.85 547.89L1793.74 518.802L1768.63 489.713L1767.36 488.24L1768.63 486.768L1793.74 457.679L1818.85 428.591L1820.11 427.118L1818.85 425.646L1793.74 396.557L1768.63 367.469L1767.36 365.996L1768.63 364.523L1793.74 335.435L1818.85 306.347L1820.11 304.874L1818.85 303.401L1793.74 274.313L1768.63 245.225L1767.36 243.752L1768.63 242.279L1793.74 213.191L1818.85 184.103L1820.11 182.63L1818.85 181.157L1793.74 152.069L1768.63 122.981L1767.36 121.508L1768.63 120.035L1793.74 90.9468L1818.85 61.8585L1820.11 60.3857L1818.85 58.9129L1793.74 29.8246L1768.63 0.736411L1768.15 0ZM1898.68 0H1893.71L1869.86 27.6154L1846.01 55.2308L1822.16 27.6154L1798.32 0H1793.34L1794.61 1.47282L1819.72 30.5611L1844.83 59.6493L1846.09 61.1221L1844.83 62.5949L1819.72 91.6832L1794.61 120.771L1793.34 122.244L1794.61 123.717L1819.72 152.805L1844.83 181.894L1846.09 183.366L1844.83 184.839L1819.72 213.927L1794.45 242.832L1793.18 244.304L1794.45 245.777L1819.56 274.865L1844.67 303.954L1845.93 305.426L1844.67 306.899L1819.56 335.988L1794.45 365.076L1793.18 366.549L1794.45 368.021L1819.56 397.11L1844.67 426.198L1845.93 427.671L1844.67 429.143L1819.56 458.232L1794.45 487.32L1793.18 488.793L1794.45 490.266L1819.56 519.354L1844.67 548.442L1845.93 549.915L1844.67 551.388L1819.56 580.476L1794.45 609.564L1793.18 611.037L1794.45 612.51L1819.56 641.598L1844.67 670.686L1845.93 672.159L1844.67 673.632L1819.56 702.72L1794.45 731.808L1793.18 733.281L1794.45 734.754L1819.56 763.842L1844.67 792.93L1845.93 794.403L1844.67 795.876L1819.56 824.964L1794.45 854.053L1793.18 855.525L1794.45 856.998L1819.56 886.087L1844.67 915.175L1845.93 916.648L1844.67 918.12L1819.56 947.209L1794.45 976.297L1793.18 977.77L1794.45 979.243L1802.74 988.816H1807.71L1798.16 977.77L1822.01 950.154L1845.85 922.539L1869.7 950.154L1893.55 977.77L1883.99 988.816H1888.97L1897.26 979.243L1898.52 977.77L1897.26 976.297L1872.15 947.209L1847.04 918.12L1845.77 916.648L1847.04 915.175L1872.15 886.087L1897.26 856.998L1898.52 855.525L1897.26 854.053L1872.15 824.964L1847.04 795.876L1845.77 794.403L1847.04 792.93L1872.15 763.842L1897.26 734.754L1898.52 733.281L1897.26 731.808L1872.15 702.72L1847.04 673.632L1845.77 672.159L1847.04 670.686L1872.15 641.598L1897.26 612.51L1898.52 611.037L1897.26 609.564L1872.15 580.476L1847.04 551.388L1845.77 549.915L1847.04 548.442L1872.15 519.354L1897.26 490.266L1898.52 488.793L1897.26 487.32L1872.15 458.232L1847.04 429.143L1845.77 427.671L1847.04 426.198L1872.15 397.11L1897.26 368.021L1898.52 366.549L1897.26 365.076L1872.15 335.988L1847.04 306.899L1845.77 305.426L1847.04 303.954L1872.15 274.865L1897.26 245.777L1898.52 244.304L1897.26 242.832L1872.15 213.743L1847.04 184.655L1845.77 183.182L1847.04 181.709L1872.15 152.621L1897.26 123.533L1898.52 122.06L1897.26 120.587L1872.15 91.4991L1847.04 62.4108L1845.77 60.938L1847.04 59.4652L1872.15 30.377L1897.26 1.28872L1898.68 0ZM1920 117.458V111.658L1899.55 88.0011L1875.7 60.3857L1899.55 32.7703L1920 9.02103V3.2218L1897.02 29.8246L1871.91 58.9129L1870.65 60.3857L1871.91 61.8585L1897.02 90.9468L1920 117.458ZM1920 239.61V233.81L1899.55 210.153L1875.7 182.538L1899.55 154.922L1920 131.265V125.466L1897.02 152.069L1871.91 181.157L1870.65 182.63L1871.91 184.103L1897.02 213.191L1920 239.61ZM1920 361.762V355.963L1899.55 332.305L1875.7 304.69L1899.55 277.075L1920 253.417V247.618L1897.02 274.221L1871.91 303.309L1870.65 304.782L1871.91 306.255L1897.02 335.343L1920 361.762ZM1920 483.914V478.115L1899.55 454.458L1875.7 426.842L1899.55 399.227L1920 375.57V369.77L1897.02 396.373L1871.91 425.461L1870.65 426.934L1871.91 428.407L1897.02 457.495L1920 483.914ZM1920 606.066V600.267L1899.55 576.61L1875.7 548.994L1899.55 521.379L1920 497.722V491.923L1897.02 518.525L1871.91 547.614L1870.65 549.086L1871.91 550.559L1897.02 579.648L1920 606.066ZM1920 728.218V722.419L1899.55 698.762L1875.7 671.147L1899.55 643.531L1920 619.874V614.075L1897.02 640.678L1871.91 669.766L1870.65 671.239L1871.91 672.711L1897.02 701.8L1920 728.218ZM1920 850.371V844.571L1899.55 820.914L1875.7 793.299L1899.55 765.683L1920 742.026V736.227L1897.02 762.83L1871.91 791.918L1870.65 793.391L1871.91 794.864L1897.02 823.952L1920 850.371ZM1920 972.615V966.816L1899.55 943.158L1875.7 915.543L1899.55 887.928L1920 864.178V858.379L1897.02 884.982L1871.91 914.07L1870.65 915.543L1871.91 917.016L1897.02 946.104L1920 972.615ZM1920 986.33V980.531L1913.29 988.356H1918.26L1920 986.33Z" fill="url(#paint0_linear_901_3303)" fill-opacity="0.6"/>
</g>
<defs>
<linearGradient id="paint0_linear_901_3303" x1="-9.39548e-06" y1="62.0016" x2="1879.99" y2="494.271" gradientUnits="userSpaceOnUse">
<stop stop-color="#EBEBEB"/>
<stop offset="1" stop-color="white" stop-opacity="0"/>
</linearGradient>
<clipPath id="clip0_901_3303">
<rect width="1920" height="367" fill="white"/>
</clipPath>
</defs>
</svg>
