<svg width="54" height="54" viewBox="0 0 54 54" fill="none" xmlns="http://www.w3.org/2000/svg">
<path d="M5 26.5C5 14.0935 14.8692 4 27 4C39.1308 4 49 14.0935 49 26.5C49 38.9065 39.1308 49 27 49C14.8692 49 5 38.9065 5 26.5Z" fill="#D2C69A"/>
<path d="M0 27C0 12.1122 12.1122 0 27 0C41.8878 0 54 12.1122 54 27C54 41.8878 41.8878 54 27 54C12.1122 54 0 41.8878 0 27Z" fill="#D2C69A" fill-opacity="0.2"/>
<path fill-rule="evenodd" clip-rule="evenodd" d="M26.0368 40H28.316C28.4533 39.9875 28.5906 39.9755 28.728 39.9635C29.1284 39.9285 29.5298 39.8934 29.9358 39.8448C31.4743 39.6651 32.972 39.3301 34.3477 38.5703C36.4478 37.4103 37.4979 35.6212 37.4898 33.2111C37.4898 31.5282 37.0176 29.9597 36.3095 28.4565C34.8605 25.3684 32.8092 22.7624 30.0416 20.7608C29.6395 20.4694 29.2067 20.2202 28.7512 19.9579C28.5428 19.8379 28.3296 19.7152 28.1125 19.5844C28.1261 19.5762 28.1452 19.5689 28.1667 19.5607C28.2095 19.5444 28.2618 19.5244 28.2997 19.4864C29.537 18.261 30.351 16.7986 30.7661 15.1075C30.8149 14.9196 30.8312 14.7236 30.8231 14.5275C30.8149 14.1762 30.701 14.0537 30.3591 14.07C29.887 14.0945 29.4149 14.1435 28.959 14.2497C28.1613 14.4295 27.3717 14.65 26.5903 14.8788C25.9554 15.0667 25.3367 15.0258 24.7344 14.7889C24.5267 14.7056 24.322 14.6193 24.1177 14.5331C23.8416 14.4167 23.5662 14.3006 23.2854 14.1926C23.0901 14.119 22.8866 14.0618 22.6831 14.021C22.0075 13.8985 21.5028 14.3233 21.4865 15.0095C21.4702 15.7121 21.7144 16.3493 22.0156 16.9702C22.5773 18.1303 23.1389 18.7838 24.3681 19.7805C24.3659 19.7848 24.3637 19.7903 24.3614 19.7962C24.355 19.8125 24.3475 19.8317 24.3355 19.8377C22.6831 20.72 21.34 21.9699 20.1515 23.3914C18.4584 25.4093 17.1316 27.6395 16.4071 30.1966C16.0246 31.5691 15.8618 32.9579 16.1385 34.363C16.4967 36.2012 17.5549 37.5246 19.1585 38.4396C20.5504 39.2321 22.0807 39.6079 23.6517 39.7958C24.1311 39.8504 24.6141 39.8831 25.0982 39.916C25.3376 39.9322 25.5773 39.9484 25.817 39.9673C25.8609 39.9673 25.9049 39.9761 25.9489 39.985C25.9782 39.9909 26.0075 39.9967 26.0368 40ZM29.3293 28.4772L29.6049 27.5045H28.4876C28.4393 27.2273 28.3497 26.9726 28.2187 26.7405C28.1794 26.6709 28.1363 26.6042 28.0893 26.5404L29.3293 26.5475L29.6089 25.5668H25.6627H25.4815H24.4536L24.1661 26.6144H25.6627C26.2219 26.6144 26.6328 26.7444 26.8954 27.0043C27.0371 27.1446 27.1406 27.3114 27.2058 27.5045H24.4418L24.1661 28.4772H27.2395C27.208 28.5994 27.1616 28.711 27.1002 28.812C26.9742 29.0168 26.7904 29.173 26.5488 29.2807C26.3073 29.3883 26.0119 29.4421 25.6627 29.4421H24.2646L24.2725 30.2101L27.0923 33.6325H28.5298V33.5655L25.9541 30.411L25.9896 30.4031C26.5961 30.3663 27.0857 30.239 27.4586 30.0211C27.8314 29.8031 28.1031 29.5209 28.2738 29.1743C28.3804 28.9578 28.4537 28.7255 28.4937 28.4772H29.3293Z" fill="white"/>
</svg>
