<svg width="54" height="54" viewBox="0 0 54 54" fill="none" xmlns="http://www.w3.org/2000/svg">
<path d="M5 26.5C5 14.0935 14.8692 4 27 4C39.1308 4 49 14.0935 49 26.5C49 38.9065 39.1308 49 27 49C14.8692 49 5 38.9065 5 26.5Z" fill="#D2C69A"/>
<path d="M0 27C0 12.1122 12.1122 0 27 0C41.8878 0 54 12.1122 54 27C54 41.8878 41.8878 54 27 54C12.1122 54 0 41.8878 0 27Z" fill="#D2C69A" fill-opacity="0.2"/>
<path d="M29.9219 14.0138C29.9219 14.1462 29.9219 14.2545 29.9219 14.3669C29.9219 15.9075 29.9219 17.4482 29.9219 18.9888C29.9259 20.373 30.8045 21.2556 32.1887 21.2596C33.7293 21.2636 35.27 21.2596 36.8066 21.2596C36.9189 21.2596 37.0313 21.2596 37.1757 21.2596C37.1757 21.388 37.1757 21.4923 37.1757 21.5926C37.1757 26.9688 37.1757 32.345 37.1757 37.7211C37.1757 38.8806 36.5338 39.7312 35.4826 39.9559C35.3021 39.996 35.1055 40 34.9209 40C29.3642 40 23.8115 40 18.2548 40C16.8907 40 16 39.1093 16 37.7452C16 30.5837 16 23.4221 16 16.2606C16 14.8925 16.8867 14.0018 18.2468 14.0018C22.0342 13.9978 25.8216 14.0018 29.613 14.0018C29.7052 13.9978 29.7975 14.0058 29.9219 14.0138ZM26.5919 30.3309C24.6581 30.3309 22.7202 30.3309 20.7864 30.3309C20.6821 30.3309 20.5778 30.3269 20.4735 30.3349C19.9158 30.375 19.5386 30.8886 19.663 31.4342C19.7713 31.8996 20.1324 32.1444 20.7102 32.1444C24.63 32.1444 28.5457 32.1444 32.4655 32.1444C32.606 32.1444 32.7504 32.1363 32.8868 32.1002C33.4284 31.9558 33.7053 31.3339 33.4485 30.8324C33.2599 30.4673 32.947 30.3269 32.5418 30.3269C30.5558 30.3349 28.5738 30.3309 26.5919 30.3309ZM26.5598 36.3691C28.5056 36.3691 30.4515 36.3691 32.3933 36.3691C32.4976 36.3691 32.6019 36.3731 32.7063 36.3651C33.0954 36.337 33.3602 36.1243 33.4886 35.7673C33.621 35.4062 33.5247 35.0772 33.2519 34.8084C33.0353 34.5917 32.7584 34.5556 32.4655 34.5556C28.5457 34.5556 24.63 34.5556 20.7102 34.5596C20.5778 34.5596 20.4454 34.5677 20.317 34.5957C19.976 34.68 19.7593 34.9007 19.667 35.2337C19.5748 35.5747 19.667 35.8676 19.9118 36.1163C20.1204 36.3249 20.3812 36.3731 20.666 36.3731C22.632 36.3691 24.5939 36.3691 26.5598 36.3691ZM21.2358 27.2938C21.4644 27.3058 21.6851 27.1413 21.8937 26.9327C23.4665 25.3559 25.0472 23.7792 26.62 22.2025C27.0292 21.7932 27.4384 21.392 27.8396 20.9748C28.1205 20.6819 28.1726 20.2646 27.9961 19.9276C27.8196 19.5906 27.4625 19.386 27.0773 19.4662C26.8687 19.5104 26.648 19.6267 26.4956 19.7752C24.5136 21.7371 22.5477 23.711 20.5778 25.6809C20.5176 25.7411 20.4574 25.8013 20.4093 25.8735C20.2087 26.1744 20.1806 26.4914 20.3491 26.8123C20.5176 27.1293 20.7904 27.2898 21.2358 27.2938ZM25.3882 26.1062C25.3923 26.9367 26.0583 27.5987 26.8847 27.6067C27.7152 27.6147 28.4013 26.9287 28.4053 26.0982C28.4053 25.2637 27.7233 24.5816 26.8888 24.5856C26.0502 24.5816 25.3802 25.2597 25.3882 26.1062ZM19.9439 20.6377C19.9399 21.4803 20.6059 22.1583 21.4444 22.1583C22.2749 22.1623 22.9609 21.4763 22.9569 20.6418C22.9569 19.8233 22.2869 19.1453 21.4644 19.1332C20.6339 19.1252 19.9479 19.7992 19.9439 20.6377Z" fill="white"/>
<path d="M37.0433 19.4263C36.8588 19.4343 36.7665 19.4423 36.6742 19.4423C35.2018 19.4423 33.7253 19.4423 32.2529 19.4423C31.7955 19.4423 31.7354 19.3781 31.7354 18.9168C31.7354 17.4443 31.7354 15.9679 31.7354 14.4955C31.7354 14.4032 31.7354 14.3069 31.7354 14.1263C31.9761 14.2908 32.1847 14.3911 32.3452 14.5476C33.7695 15.9558 35.1857 17.3721 36.594 18.7964C36.7545 18.9609 36.8668 19.1735 37.0433 19.4263Z" fill="white"/>
</svg>
