<svg width="54" height="54" viewBox="0 0 54 54" fill="none" xmlns="http://www.w3.org/2000/svg">
<path d="M5 26.5C5 14.0935 14.8692 4 27 4C39.1308 4 49 14.0935 49 26.5C49 38.9065 39.1308 49 27 49C14.8692 49 5 38.9065 5 26.5Z" fill="#D2C69A"/>
<path d="M0 27C0 12.1122 12.1122 0 27 0C41.8878 0 54 12.1122 54 27C54 41.8878 41.8878 54 27 54C12.1122 54 0 41.8878 0 27Z" fill="#D2C69A" fill-opacity="0.2"/>
<path d="M23.3504 14.0068C23.8853 14.0745 24.427 14.1219 24.9551 14.2167C26.438 14.4672 27.8463 14.9141 29.0786 15.8011C29.4307 16.0584 29.7693 16.3563 30.0536 16.6813C31.1641 17.9542 31.1302 19.5115 29.9792 20.7506C29.126 21.6714 28.0427 22.2131 26.8713 22.5855C24.5557 23.3303 22.1926 23.4183 19.8025 23.0121C18.3603 22.7615 16.979 22.3214 15.7603 21.4751C14.9748 20.9266 14.3316 20.2563 14.0811 19.2948C14.0608 19.2068 14.0269 19.1188 14.0066 19.0308C14.0066 18.7938 14.0066 18.5568 14.0066 18.3198C14.2707 17.0943 15.0561 16.275 16.0717 15.625C17.2837 14.8599 18.6176 14.4401 20.0259 14.2031C20.5405 14.1151 21.0619 14.0677 21.5765 14C22.1655 14.0068 22.7546 14.0068 23.3504 14.0068Z" fill="white"/>
<path d="M14.0066 22.0306C15.9228 23.7301 18.2452 24.4072 20.7301 24.6781C22.003 24.8203 23.276 24.7932 24.6098 24.6307C24.4338 24.827 24.2916 24.9895 24.1494 25.152C23.5062 25.8901 22.978 26.7026 22.5921 27.6031C22.5176 27.7656 22.4364 27.8265 22.2536 27.8198C20.2697 27.7656 18.3535 27.4474 16.566 26.5333C15.8009 26.1406 15.1102 25.6395 14.5889 24.9354C14.291 24.5359 14.1285 24.0755 14.0066 23.6015C14.0066 23.0801 14.0066 22.552 14.0066 22.0306Z" fill="white"/>
<path d="M14.0066 31.1714C14.7717 31.8485 15.6181 32.3902 16.566 32.7896C18.1436 33.4532 19.7889 33.7782 21.4884 33.873C21.9827 33.9001 21.9895 33.8933 22.1249 34.3605C22.3619 35.1933 22.7072 35.9787 23.1541 36.7235C23.1879 36.7777 23.215 36.8386 23.2624 36.9267C23.0457 36.9402 22.8494 36.9605 22.6598 36.9605C20.6353 36.9741 18.6717 36.6761 16.8233 35.8027C15.9566 35.3964 15.1847 34.8615 14.6024 34.0829C14.3045 33.6834 14.142 33.2297 14.0201 32.749C14.0066 32.2209 14.0066 31.6927 14.0066 31.1714Z" fill="white"/>
<path d="M14.0068 26.601C14.8057 27.3119 15.7063 27.8739 16.7016 28.2734C18.2115 28.8895 19.7891 29.1942 21.4074 29.2958C21.5563 29.3025 21.7121 29.3093 21.861 29.3229C21.8949 29.3229 21.922 29.3364 21.9897 29.3499C21.7798 30.3317 21.6579 31.3135 21.7595 32.363C21.3126 32.3224 20.886 32.2953 20.4662 32.2411C18.9224 32.038 17.4396 31.6385 16.0854 30.826C15.4625 30.4536 14.887 30.0067 14.5146 29.3838C14.2911 29.0114 14.1693 28.5848 14 28.1853C14.0068 27.6504 14.0068 27.1223 14.0068 26.601Z" fill="white"/>
<path fill-rule="evenodd" clip-rule="evenodd" d="M30.4703 39.9115C30.0593 39.8433 29.6487 39.7751 29.2544 39.6484C26.0653 38.6124 24.0408 36.4593 23.4044 33.1619C22.6054 28.991 24.9752 25.0368 28.9565 23.6826C33.6352 22.0914 38.7269 24.9623 39.7899 29.7967C39.843 30.0376 39.8813 30.2834 39.9197 30.5297C39.945 30.6918 39.9703 30.8542 39.9998 31.0155V32.2342C39.9941 32.2657 39.986 32.2971 39.978 32.328C39.9671 32.3704 39.9564 32.4118 39.9524 32.4509C39.6342 35.8499 37.1628 38.802 33.8654 39.689C33.4963 39.7871 33.1176 39.8498 32.738 39.9126C32.5675 39.9408 32.3969 39.969 32.2268 40.0005C31.8275 40.0072 31.4213 40.0072 31.0152 40.0072H31.0149C30.8342 39.9719 30.6522 39.9417 30.4703 39.9115ZM34.4572 30.2395L34.7649 29.1536H33.5176C33.4637 28.8442 33.3636 28.5599 33.2174 28.3007C33.1736 28.2231 33.1255 28.1486 33.073 28.0774L34.4572 28.0853L34.7693 26.9906H30.3642H30.162H29.0145L28.6936 28.16H30.3642C30.9885 28.16 31.4471 28.3051 31.7402 28.5953C31.8985 28.7519 32.014 28.938 32.0868 29.1536H29.0013L28.6936 30.2395H32.1243C32.0892 30.3759 32.0373 30.5004 31.9688 30.6132C31.8282 30.8418 31.623 31.0162 31.3534 31.1363C31.0837 31.2565 30.754 31.3166 30.3642 31.3166H28.8035L28.8123 32.1739L31.96 35.9943H33.5647V35.9195L30.6895 32.3981L30.7291 32.3893C31.4061 32.3482 31.9527 32.2061 32.3689 31.9628C32.7851 31.7196 33.0884 31.4045 33.2789 31.0176C33.3979 30.776 33.4798 30.5166 33.5244 30.2395H34.4572Z" fill="white"/>
</svg>
