<svg width="1156" height="817" viewBox="0 0 1156 817" fill="none" xmlns="http://www.w3.org/2000/svg">
<line x1="0.500061" y1="2.18557e-08" x2="0.499974" y2="2000" stroke="#EBEBEB" stroke-dasharray="5 5"/>
<line x1="105.5" y1="2.18557e-08" x2="105.5" y2="2000" stroke="#EBEBEB" stroke-dasharray="5 5"/>
<line x1="210.5" y1="2.18557e-08" x2="210.5" y2="2000" stroke="#EBEBEB" stroke-dasharray="5 5"/>
<line x1="315.5" y1="2.18557e-08" x2="315.5" y2="2000" stroke="#EBEBEB" stroke-dasharray="5 5"/>
<line x1="420.5" y1="2.18557e-08" x2="420.5" y2="2000" stroke="#EBEBEB" stroke-dasharray="5 5"/>
<line x1="525.5" y1="4.03723e-08" x2="525.5" y2="2000" stroke="#EBEBEB" stroke-dasharray="5 5"/>
<line x1="630.5" y1="4.03723e-08" x2="630.5" y2="2000" stroke="#EBEBEB" stroke-dasharray="5 5"/>
<line x1="735.5" y1="4.03723e-08" x2="735.5" y2="2000" stroke="#EBEBEB" stroke-dasharray="5 5"/>
<line x1="840.501" y1="4.03723e-08" x2="840.5" y2="2000" stroke="#EBEBEB" stroke-dasharray="5 5"/>
<line x1="945.501" y1="4.03723e-08" x2="945.501" y2="2000" stroke="#EBEBEB" stroke-dasharray="5 5"/>
<line x1="1050.5" y1="4.03723e-08" x2="1050.5" y2="2000" stroke="#EBEBEB" stroke-dasharray="5 5"/>
<line x1="1155.5" y1="4.03723e-08" x2="1155.5" y2="2000" stroke="#EBEBEB" stroke-dasharray="5 5"/>
</svg>
