<svg width="54" height="54" viewBox="0 0 54 54" fill="none" xmlns="http://www.w3.org/2000/svg">
<path d="M5 26.5C5 14.0935 14.8692 4 27 4C39.1308 4 49 14.0935 49 26.5C49 38.9065 39.1308 49 27 49C14.8692 49 5 38.9065 5 26.5Z" fill="#D2C69A"/>
<path d="M0 27C0 12.1122 12.1122 0 27 0C41.8878 0 54 12.1122 54 27C54 41.8878 41.8878 54 27 54C12.1122 54 0 41.8878 0 27Z" fill="#D2C69A" fill-opacity="0.2"/>
<path d="M40 15.9771C40 18.7396 40 21.4953 40 24.251C39.9797 24.312 39.9594 24.3797 39.9458 24.4474C39.7021 25.4833 38.8151 26.2281 37.7588 26.2281C35.1724 26.2417 32.5792 26.2417 29.9927 26.2281C28.7807 26.2213 27.7786 25.2193 27.7719 24.0073C27.7583 21.4208 27.7583 18.8276 27.7719 16.2411C27.7719 15.5031 28.0833 14.8802 28.6927 14.4672C29.0042 14.2573 29.3901 14.149 29.7422 14C32.5047 14 35.2604 14 38.0161 14C38.0635 14.0135 38.1109 14.0339 38.1583 14.0474C38.9437 14.2167 39.4922 14.6771 39.8172 15.4016C39.8984 15.5844 39.9391 15.7875 40 15.9771ZM33.9062 19.3828C33.1479 19.3828 32.3828 19.3828 31.6245 19.3828C31.1505 19.3828 30.812 19.701 30.8052 20.1344C30.7984 20.5745 31.1437 20.9062 31.6312 20.9062C33.1276 20.9062 34.624 20.9062 36.1203 20.9062C36.6078 20.9062 36.9531 20.588 36.9531 20.1411C36.9531 19.6943 36.6078 19.3828 36.1135 19.3828C35.3755 19.3828 34.6443 19.3828 33.9062 19.3828Z" fill="white"/>
<path d="M15.9771 14C18.7396 14 21.4953 14 24.251 14C24.2984 14.0135 24.3458 14.0339 24.3932 14.0474C25.463 14.2708 26.2213 15.1714 26.2281 16.2682C26.2349 18.8411 26.2417 21.4141 26.2281 23.987C26.2213 25.2328 25.2193 26.2281 23.9802 26.2349C21.4005 26.2484 18.8208 26.2417 16.2411 26.2349C15.2729 26.2281 14.413 25.5849 14.1151 24.6708C14.0677 24.5354 14.0406 24.3932 14 24.2578C14 21.4953 14 18.7396 14 15.9839C14.0203 15.9094 14.0406 15.8417 14.0609 15.7672C14.2234 15.1307 14.5823 14.6297 15.1578 14.3115C15.4083 14.1693 15.6995 14.1016 15.9771 14ZM20.9062 20.9062C21.4005 20.9062 21.8609 20.9062 22.3146 20.9062C22.8495 20.9062 23.1948 20.5948 23.188 20.1344C23.1812 19.6807 22.8359 19.3828 22.3146 19.3828C21.8542 19.3828 21.387 19.3828 20.9469 19.3828C20.9198 19.349 20.9062 19.3422 20.9062 19.3354C20.9062 18.8547 20.8995 18.374 20.8995 17.8865C20.8995 17.5953 20.7844 17.3583 20.5271 17.2094C20.0125 16.8979 19.3828 17.2568 19.376 17.8729C19.3693 18.3672 19.376 18.8682 19.376 19.3828C18.8411 19.3828 18.3333 19.376 17.8255 19.3828C17.4125 19.3896 17.0875 19.7349 17.0875 20.1411C17.0875 20.5474 17.4057 20.8792 17.8187 20.9062C17.9474 20.913 18.0693 20.9062 18.1979 20.9062C18.5839 20.9062 18.9698 20.9062 19.349 20.9062C19.3625 20.9536 19.3693 20.974 19.3693 20.9875C19.3693 21.4344 19.3693 21.8812 19.3693 22.3349C19.3693 22.8495 19.6807 23.1948 20.1344 23.1948C20.588 23.1948 20.8927 22.8495 20.8927 22.3281C20.9062 21.8609 20.9062 21.4005 20.9062 20.9062Z" fill="white"/>
<path d="M14 38.0229C14 35.2604 14 32.5047 14 29.7489C14.0203 29.688 14.0406 29.6203 14.0542 29.5594C14.2979 28.5166 15.1917 27.7786 16.2682 27.7719C18.8411 27.7651 21.4141 27.7583 23.987 27.7719C25.2328 27.7786 26.2281 28.7807 26.2349 30.0198C26.2484 32.5995 26.2417 35.1791 26.2349 37.7588C26.2281 38.7135 25.6187 39.5463 24.7182 39.8646C24.5693 39.9187 24.4135 39.9526 24.2578 40C21.4953 40 18.7396 40 15.9839 40C15.9229 39.9797 15.8552 39.9594 15.7943 39.9458C14.9615 39.7291 14.3995 39.2213 14.1151 38.4088C14.0609 38.2802 14.0339 38.1515 14 38.0229ZM19.0781 33.8588C18.7057 34.2312 18.3604 34.5698 18.0219 34.9083C17.8323 35.0979 17.7375 35.3281 17.7849 35.5989C17.8391 35.8901 18.0016 36.0932 18.2792 36.188C18.5771 36.2963 18.8479 36.2219 19.0714 36.0052C19.4234 35.6599 19.7687 35.301 20.1276 34.9354C20.2156 35.0166 20.2766 35.0708 20.3375 35.1317C20.6286 35.4229 20.9198 35.7208 21.2177 36.0052C21.4411 36.2219 21.712 36.2963 22.0099 36.188C22.301 36.0864 22.4635 35.8698 22.5109 35.5718C22.5516 35.301 22.4432 35.0776 22.2536 34.888C21.9151 34.5495 21.5766 34.2109 21.1974 33.8385C21.299 33.7573 21.3734 33.7099 21.4411 33.6422C21.7323 33.3578 22.0234 33.0734 22.301 32.7823C22.5177 32.5588 22.5854 32.2812 22.4771 31.9833C22.3755 31.7057 22.1656 31.5432 21.8812 31.4958C21.5969 31.4484 21.3734 31.5567 21.1771 31.7599C20.8385 32.0984 20.5068 32.437 20.1479 32.7958C19.7823 32.4234 19.4437 32.0781 19.1052 31.7396C18.9156 31.55 18.6854 31.4484 18.4146 31.4958C18.1234 31.5432 17.9203 31.7125 17.8187 31.9901C17.7104 32.288 17.7781 32.5588 17.9948 32.7823C18.3401 33.1344 18.699 33.4797 19.0781 33.8588Z" fill="white"/>
<path d="M38.0161 39.9999C35.2536 39.9999 32.4979 39.9999 29.7422 39.9999C29.6812 39.9796 29.6135 39.9593 29.5526 39.9458C28.5234 39.702 27.7719 38.8218 27.7719 37.7859C27.7583 35.1791 27.7583 32.5723 27.7719 29.9656C27.7786 28.7807 28.7807 27.7786 29.9656 27.7718C32.5724 27.7515 35.1792 27.7515 37.7859 27.7718C38.6797 27.7786 39.3432 28.2322 39.7562 29.0312C39.8713 29.2546 39.9255 29.5052 40.0068 29.7421C40.0068 32.5046 40.0068 35.2604 40.0068 38.0161C39.9864 38.077 39.9661 38.1447 39.9526 38.2057C39.7495 39.0114 39.262 39.5666 38.4833 39.8578C38.3276 39.9187 38.1719 39.9525 38.0161 39.9999ZM33.8521 33.0937C34.6104 33.0937 35.3755 33.0937 36.1339 33.0937C36.6078 33.0937 36.9463 32.7755 36.9531 32.3421C36.9599 31.8953 36.6146 31.577 36.1271 31.577C34.6307 31.577 33.1344 31.577 31.638 31.577C31.1505 31.577 30.8052 31.902 30.812 32.3421C30.812 32.7822 31.1573 33.0937 31.6516 33.1005C32.3828 33.0937 33.1141 33.0937 33.8521 33.0937ZM33.8792 36.1406C34.6172 36.1406 35.3484 36.1406 36.0865 36.1406C36.601 36.1406 36.9463 35.8359 36.9531 35.3822C36.9599 34.9286 36.6078 34.6171 36.1 34.6171C34.624 34.6171 33.1411 34.6171 31.6651 34.6171C31.1573 34.6171 30.8052 34.9354 30.812 35.3822C30.8187 35.8359 31.1641 36.1338 31.6786 36.1338C32.4099 36.1406 33.1411 36.1406 33.8792 36.1406Z" fill="white"/>
</svg>
