<svg width="129" height="57" viewBox="0 0 129 57" fill="none" xmlns="http://www.w3.org/2000/svg">
<g clip-path="url(#clip0_498_5684)">
<mask id="mask0_498_5684" style="mask-type:luminance" maskUnits="userSpaceOnUse" x="0" y="0" width="129" height="57">
<path d="M128.921 0.5H0V56.5H128.921V0.5Z" fill="white"/>
</mask>
<g mask="url(#mask0_498_5684)">
<path d="M14.2243 56.5C12.0225 56.5 10.6769 55.2651 10.6769 53.2614C10.6769 51.4557 11.7604 49.0267 14.2942 46.3065C17.7599 42.5786 22.047 39.6662 25.7341 36.7305C23.4741 35.2568 20.1656 34.9655 16.6707 34.9655C14.4456 34.9655 12.1331 35.082 9.97213 35.082C5.59767 35.082 1.79988 34.6044 0.396089 31.7327C0.128146 31.1852 0 30.5561 0 29.8746C0 22.1567 16.0358 6.77914 28.3728 6.77914C32.6366 6.77914 34.4947 8.75376 34.4947 11.6254C34.4947 15.3883 31.2969 20.6947 26.1361 25.1216C23.0722 27.7486 19.1754 30.0202 17.9696 30.0202C16.7639 30.0202 18.2084 27.8884 20.1831 27.7136C21.7208 27.5738 24.2139 25.3371 25.338 24.3061C29.7882 20.2403 33.1783 15.1145 33.1783 11.707C33.1783 9.49934 31.7512 8.01983 28.2738 8.01983C16.6649 8.01983 2.07364 23.9216 2.07364 29.7407C2.07364 30.2008 2.16684 30.6027 2.35906 30.9231C3.38423 32.6356 6.3782 32.9268 10.0537 32.9268C11.9642 32.9268 14.0553 32.8453 16.1465 32.8453C20.4685 32.8453 24.8022 33.1831 27.534 35.251C31.1629 32.1871 35.217 27.7893 38.3973 22.9081C38.1993 19.7685 37.9838 16.396 37.9838 13.1515C37.9838 11.7186 38.0245 10.3032 38.1294 8.95181C38.5896 3.0629 40.4826 0.494141 42.2359 0.494141C43.9892 0.494141 45.5211 2.9697 45.5211 7.11116C45.5211 10.8682 44.2455 16.0057 40.6807 21.9179C40.9428 27.0612 41.1933 32.9268 41.1525 38.6934C42.9465 34.0802 45.8648 29.8746 48.5792 29.8746C52.773 29.8746 51.4799 38.6061 56.1165 38.6061C58.5396 38.6061 61.4171 36.0024 62.9549 33.1831C63.3568 32.4434 63.8752 31.5871 64.1315 31.7095C64.2596 31.7735 64.3062 31.8958 64.3062 32.0589C64.3062 32.4317 64.0499 33.0026 63.8111 33.486C61.6035 38.0352 58.4989 39.8642 55.8369 39.8642C49.6917 39.8642 50.2043 31.7677 48.1423 31.7677C46.0803 31.7677 41.5311 39.3516 40.8904 44.5707C40.7972 45.3571 40.1972 45.7007 39.6846 45.4968C38.8225 45.1648 38.6595 44.6173 38.6595 44.0406C38.6595 43.7902 38.6886 43.5339 38.7061 43.2951C38.8866 40.8486 38.9623 38.4954 38.9623 36.2237C38.9623 32.3618 38.7527 28.7155 38.5313 25.1798C35.5315 29.3737 31.9201 33.154 28.4136 36.0257C28.6 36.2237 28.7747 36.4334 28.9378 36.6547C29.7358 37.7382 30.1144 39.0022 30.1144 40.3885C30.1144 43.4465 28.2446 47.0696 24.8546 50.5004C20.6549 54.7525 16.8338 56.4941 14.2126 56.4941L14.2243 56.5ZM14.4107 55.0671C16.6008 55.0671 20.1365 53.3138 23.9226 49.2713C26.9282 46.056 28.2446 43.2834 28.2446 41.07C28.2446 39.8351 27.8369 38.7692 27.0913 37.8954C26.9632 37.744 26.8234 37.61 26.6778 37.4702C23.5498 39.9516 18.7327 43.3184 15.2261 47.2909C13.0768 49.7315 12.1623 51.7003 12.1623 53.0517C12.1623 54.403 13.0127 55.0729 14.4107 55.0729V55.0671ZM40.5525 19.2734C43.1679 14.3223 44.03 9.98863 44.03 6.87234C44.03 3.75605 43.1329 1.78143 42.2883 1.78143C41.2282 1.78143 40.1273 4.39096 40.1273 10.0702C40.1273 13.7981 40.4652 17.7065 40.5525 19.2734Z" fill="white"/>
<path d="M74.1614 41.8159C70.9694 41.8042 70.3811 35.2163 70.3695 32.0127C70.3695 31.4244 70.3695 31.104 70.2879 31.104C70.2239 31.104 70.1015 31.3486 69.886 31.8729C68.89 34.2785 67.2182 37.9598 65.0863 37.9598C63.5136 37.9598 62.8496 36.5561 62.8496 34.8377C62.8496 32.9796 63.6185 30.6497 64.8534 28.8731C66.0183 27.1955 67.7133 26.0713 69.123 26.0713C69.8394 26.0713 70.486 26.3626 70.952 27.0208C71.1791 27.347 71.249 27.8071 70.9927 28.1333C70.818 28.3547 70.6491 28.4362 70.4801 28.4362C70.1947 28.4362 69.9035 28.2032 69.5889 28.0285C69.3909 27.9178 69.1812 27.8654 68.9773 27.8654C67.1833 27.8654 65.3019 31.8205 64.7077 33.9524C64.5155 34.6397 64.434 35.1756 64.434 35.5717C64.434 36.2299 64.6611 36.5153 64.999 36.5153C65.3659 36.5153 65.8611 36.1833 66.3503 35.6124C67.1949 34.6222 68.0221 32.9447 68.657 31.4535C69.3793 29.7526 70.3637 28.7799 71.1733 28.7799C71.983 28.7799 72.6179 29.7585 72.6412 31.9836C72.6586 33.6495 72.7518 40.2723 74.4119 40.2723C75.9555 40.2723 79.7941 34.5465 80.5862 33.3C81.3027 32.17 81.693 31.7447 81.9726 31.7447C82.1356 31.7447 82.2114 31.8438 82.2114 32.0302C82.2114 32.3505 81.9842 32.933 81.5473 33.7135C80.3358 35.8862 76.8234 41.8334 74.1498 41.8217L74.1614 41.8159Z" fill="white"/>
<path d="M82.8646 39.7009C82.1423 39.7009 81.985 38.7106 81.7695 37.6622C81.5831 36.7593 81.1055 34.1032 81.1055 31.9888C81.1055 30.352 81.3967 29.1055 82.3403 29.1055C83.1675 29.1055 83.284 29.9442 83.284 31.3946C83.284 31.9946 83.2665 32.6994 83.2665 33.4974C83.2665 34.7789 83.2665 35.2507 83.3131 35.2507C83.3597 35.2507 83.482 34.7672 83.715 34.1614C84.6237 31.8257 86.5983 28.5055 89.1612 27.5968C89.4466 27.4978 89.7029 27.4512 89.9243 27.4512C90.9378 27.4512 91.3048 28.3599 91.0019 28.9482C90.8038 29.3326 90.3903 29.4608 90.0291 29.3501C89.8835 29.3035 89.7495 29.286 89.6214 29.286C89.1903 29.286 88.8175 29.5132 88.3982 29.7928C85.3285 31.8606 84.0528 37.2544 83.8257 38.0582C83.5403 39.0776 83.284 39.7067 82.8704 39.7067L82.8646 39.7009Z" fill="white"/>
<path d="M103.513 41.8159C100.321 41.8042 99.7327 35.2163 99.721 32.0127C99.721 31.4244 99.721 31.104 99.6395 31.104C99.5754 31.104 99.4531 31.3486 99.2376 31.8729C98.2415 34.2785 96.5698 37.9598 94.4379 37.9598C92.8652 37.9598 92.2012 36.5561 92.2012 34.8377C92.2012 32.9796 92.9701 30.6497 94.2049 28.8731C95.3699 27.1955 97.0649 26.0713 98.4745 26.0713C99.191 26.0713 99.8375 26.3626 100.304 27.0208C100.531 27.347 100.601 27.8071 100.344 28.1333C100.17 28.3547 100.001 28.4362 99.8317 28.4362C99.5463 28.4362 99.2551 28.2032 98.9405 28.0285C98.7425 27.9178 98.5328 27.8654 98.3289 27.8654C96.5349 27.8654 94.6534 31.8205 94.0593 33.9524C93.8671 34.6397 93.7797 35.1756 93.7797 35.5717C93.7797 36.2299 94.0069 36.5153 94.3505 36.5153C94.7175 36.5153 95.2126 36.1833 95.7019 35.6124C96.5465 34.6222 97.3736 32.9447 98.0085 31.4535C98.7308 29.7526 99.7152 28.7799 100.525 28.7799C101.335 28.7799 101.969 29.7585 101.993 31.9836C102.01 33.6495 102.103 40.2723 103.763 40.2723C105.307 40.2723 109.146 34.5465 109.938 33.3C110.654 32.17 111.045 31.7447 111.324 31.7447C111.487 31.7447 111.563 31.8438 111.563 32.0302C111.563 32.3505 111.336 32.933 110.899 33.7135C109.687 35.8862 106.175 41.8334 103.501 41.8217L103.513 41.8159Z" fill="white"/>
<path d="M112.42 39.4103C111.983 39.4103 111.605 38.8802 111.325 37.9541C110.923 36.6319 110.818 35.3271 110.818 33.9699C110.818 32.4496 110.952 30.8594 110.952 29.0945C110.952 28.78 110.947 28.5179 110.947 28.2965C110.947 27.7898 110.987 27.5043 111.255 27.2539C111.779 26.7646 112.88 27.1607 112.88 29.6537C112.88 30.8128 112.723 32.0069 112.723 33.4224C112.723 33.9874 112.746 34.5815 112.816 35.2281C112.898 35.9795 113.032 36.0261 113.323 35.4203C114.232 33.5622 114.942 30.9876 116.48 30.9876C117.785 30.9876 118.67 32.3564 119.713 33.5447C120.587 34.5349 121.507 35.263 122.707 35.263C123.965 35.263 125.538 34.4592 127.687 32.2982C128.2 31.7856 128.497 31.6167 128.677 31.6167C128.852 31.6167 128.922 31.7099 128.922 31.8555C128.922 32.1409 128.648 32.6127 128.351 32.9564C126.377 35.2048 124.46 36.6319 122.532 36.6319C121.256 36.6319 119.975 36.0086 118.664 34.5873C117.598 33.4282 116.999 32.7816 116.515 32.7816C115.787 32.7816 115.315 34.232 113.906 37.5871C113.375 38.8569 112.863 39.4161 112.414 39.4161L112.42 39.4103Z" fill="white"/>
<path d="M50.7352 19.5351H50.2052C49.7741 19.5351 49.5586 19.3604 49.5586 19.0167V14.5258C49.5586 13.9375 49.7858 13.4889 50.2343 13.1744C50.6071 12.9123 51.0498 12.7783 51.5682 12.7783H54.8534V13.2443C54.8534 13.5938 54.6379 13.7685 54.2068 13.7685H51.5798C51.3585 13.7685 51.1721 13.8268 51.0206 13.9375C50.8342 14.0714 50.741 14.2695 50.741 14.5258V15.6616H54.8534V16.1276C54.8534 16.4771 54.6379 16.646 54.2068 16.646H50.741V19.5351H50.7352Z" fill="white"/>
<path d="M57.5028 19.5362H56.9727C56.5417 19.5362 56.3262 19.3614 56.3262 19.0177V13.3036C56.3262 12.9541 56.5417 12.7852 56.9727 12.7852H57.5028V19.542V19.5362Z" fill="white"/>
<path d="M60.3583 19.5362H59.8282C59.3972 19.5362 59.1816 19.3614 59.1816 19.0177V13.3036C59.1816 12.9541 59.3972 12.7852 59.8282 12.7852H60.3757L64.4706 17.8178V13.3036C64.4706 12.9541 64.6861 12.7852 65.123 12.7852H65.6472V19.542H65.123C64.6803 19.542 64.3424 19.408 64.1211 19.1342L60.3524 14.5035V19.5362H60.3583Z" fill="white"/>
<path d="M71.7928 17.6128H68.3911L67.5814 19.5349H66.8533C66.6902 19.5349 66.5795 19.4883 66.5213 19.3952C66.4747 19.3136 66.4747 19.2088 66.5213 19.0864L68.9794 13.2558C69.0493 13.0869 69.1891 12.9645 69.4046 12.8772C69.6201 12.7898 69.8473 12.749 70.0919 12.749C70.3365 12.749 70.5579 12.7898 70.7734 12.8772C70.9889 12.9645 71.1287 13.0869 71.2044 13.2558L73.8548 19.5349H73.0567C72.7539 19.5349 72.55 19.4126 72.4451 19.1622L71.7928 17.6128ZM70.2201 13.879H69.9638L68.8104 16.6225H71.3792L70.2259 13.879H70.2201Z" fill="white"/>
<path d="M75.8758 19.5362H75.3458C74.9147 19.5362 74.6992 19.3614 74.6992 19.0177V13.3036C74.6992 12.9541 74.9147 12.7852 75.3458 12.7852H75.8933L79.9882 17.8178V13.3036C79.9882 12.9541 80.2037 12.7852 80.6406 12.7852H81.1648V19.542H80.6406C80.1979 19.542 79.86 19.408 79.6387 19.1342L75.87 14.5035V19.5362H75.8758Z" fill="white"/>
<path d="M83.8095 16.0984V17.2808C83.8095 17.6536 83.9959 17.9798 84.3686 18.2594C84.7531 18.5448 85.2307 18.6905 85.7899 18.6905C86.3491 18.6905 86.8209 18.5448 87.2112 18.2594C87.2869 18.2012 87.351 18.1429 87.4034 18.0905C87.6247 17.8575 87.8985 17.8109 88.2247 17.9449L88.7198 18.1546C88.5509 18.4749 88.3062 18.7545 87.9859 18.9934C87.3743 19.4477 86.6403 19.6749 85.7899 19.6749C84.9395 19.6749 84.1939 19.4477 83.5881 18.9934C82.9532 18.5215 82.6387 17.9449 82.6387 17.275V15.0092C82.6387 14.3335 82.9532 13.7626 83.5881 13.2908C84.1997 12.8307 84.9337 12.6035 85.7899 12.6035C86.6462 12.6035 87.3743 12.8307 87.9859 13.2908C88.3062 13.5297 88.5509 13.8092 88.7198 14.1238L88.2247 14.3335C87.9043 14.4791 87.6306 14.4325 87.4034 14.1937C87.351 14.1413 87.2869 14.0888 87.2112 14.0248C86.8209 13.7335 86.3491 13.5879 85.7899 13.5879C85.2307 13.5879 84.7531 13.7335 84.3686 14.0248C83.9959 14.3044 83.8095 14.6305 83.8095 15.0033V16.0868V16.0984Z" fill="white"/>
<path d="M91.1883 16.646V17.7877C91.1883 18.044 91.2815 18.242 91.4737 18.3818C91.6252 18.4925 91.8116 18.5507 92.0271 18.5507H94.6599C95.0909 18.5507 95.3065 18.7255 95.3065 19.0691V19.5351H92.0154C91.497 19.5351 91.0543 19.407 90.6815 19.1449C90.233 18.8303 90.0059 18.376 90.0059 17.7877V14.5258C90.0059 13.9375 90.233 13.4889 90.6815 13.1744C91.0543 12.9123 91.497 12.7783 92.0154 12.7783H95.3065V13.2443C95.3065 13.5938 95.0909 13.7685 94.6599 13.7685H92.0271C91.8116 13.7685 91.6252 13.8268 91.4737 13.9375C91.2815 14.0772 91.1883 14.2753 91.1883 14.5258V15.6616H95.3065V16.1276C95.3065 16.4771 95.0909 16.646 94.6599 16.646H91.1883Z" fill="white"/>
<path d="M101.452 12.7725V17.6246C101.452 17.9042 101.598 18.1489 101.895 18.3527C102.227 18.5799 102.634 18.6964 103.106 18.6964C103.578 18.6964 103.98 18.5799 104.312 18.3527C104.609 18.1489 104.755 17.9042 104.755 17.6246V13.2968C104.755 12.9473 104.97 12.7784 105.407 12.7784H105.931V17.6305C105.931 17.9159 106.083 18.1547 106.38 18.3586C106.706 18.5857 107.108 18.7022 107.586 18.7022C108.063 18.7022 108.459 18.5857 108.797 18.3586C109.094 18.1489 109.24 17.9101 109.24 17.6305V13.3026C109.24 12.9531 109.455 12.7842 109.886 12.7842H110.416V17.6363C110.416 18.2246 110.125 18.7139 109.543 19.1216C109.001 19.5061 108.349 19.6983 107.586 19.6983C106.822 19.6983 106.164 19.5061 105.628 19.1216C105.518 19.0459 105.425 18.9702 105.343 18.8945C105.261 18.9702 105.162 19.0459 105.058 19.1216C104.51 19.5061 103.858 19.6983 103.1 19.6983C102.343 19.6983 101.679 19.5061 101.143 19.1216C100.561 18.7197 100.27 18.2246 100.27 17.6363V13.3084C100.27 12.9589 100.485 12.79 100.916 12.79H101.446L101.452 12.7725Z" fill="white"/>
<path d="M113.218 19.5362H112.688C112.257 19.5362 112.041 19.3614 112.041 19.0177V13.3036C112.041 12.9541 112.257 12.7852 112.688 12.7852H113.218V19.542V19.5362Z" fill="white"/>
<path d="M114.365 13.7685V13.2967C114.365 12.9472 114.581 12.7783 115.012 12.7783H119.66V13.2443C119.66 13.5938 119.445 13.7685 119.013 13.7685H117.604V19.5351H117.074C116.643 19.5351 116.427 19.3604 116.427 19.0167V13.7744H114.365V13.7685Z" fill="white"/>
<path d="M121.997 19.5362H121.467C121.036 19.5362 120.82 19.3614 120.82 19.0177V13.3036C120.82 12.9541 121.036 12.7852 121.467 12.7852H121.997V15.6685H125.696V13.3094C125.696 12.9599 125.911 12.791 126.342 12.791H126.872V19.5478H126.342C125.911 19.5478 125.696 19.3731 125.696 19.0294V16.6587H121.997V19.5478V19.5362Z" fill="white"/>
</g>
</g>
<defs>
<clipPath id="clip0_498_5684">
<rect width="129" height="56" fill="white" transform="translate(0 0.5)"/>
</clipPath>
</defs>
</svg>
