<svg width="63" height="62" viewBox="0 0 63 62" fill="none" xmlns="http://www.w3.org/2000/svg">
<rect x="0.75" width="61.5" height="61.5" rx="30.75" fill="#2160FC"/>
<path fill-rule="evenodd" clip-rule="evenodd" d="M45.5025 18.3317C46.5302 18.3317 47.4429 18.7947 48.0171 19.5107L31.3395 32.6544L14.8104 19.7494C15.3631 18.8992 16.3599 18.3317 17.4977 18.3317H45.5025ZM14.3511 40.2115V22.0817L26.2111 31.3413L14.3755 40.5819C14.3594 40.4606 14.3511 40.337 14.3511 40.2115ZM15.4357 42.4451C15.988 42.8956 16.7089 43.1683 17.4977 43.1683H45.5025C46.1805 43.1683 46.8083 42.9668 47.322 42.6241L34.7193 32.692L32.453 34.4781C31.8121 34.9832 30.8783 34.9852 30.2349 34.4829L27.9344 32.6868L15.4357 42.4451ZM36.4332 31.3413L48.5632 40.901C48.6194 40.6798 48.6492 40.4489 48.6492 40.2115V21.7139L36.4332 31.3413Z" fill="white"/>
</svg>
