<svg width="242" height="17" viewBox="0 0 242 17" fill="none" xmlns="http://www.w3.org/2000/svg">
<path d="M52.4595 3.45856C75.3519 2.96066 98.2569 2.64057 121.162 2.49831C144.067 2.35605 166.76 2.40347 189.552 2.62872C202.5 2.75912 215.461 2.93695 228.409 3.17404L230.166 0.74378C200.606 1.22983 171.059 1.83444 141.512 2.55759C111.965 3.28074 82.4178 4.12244 52.8707 5.09455C36.284 5.63987 19.7097 6.20891 3.12298 6.82537C2.15095 6.86093 0.692917 7.09803 0.144595 7.99901C-0.366342 8.84071 0.58076 9.27934 1.36586 9.25563C32.1591 8.50877 62.9773 8.43764 93.783 9.0541C124.589 9.67056 155.37 10.9865 186.113 12.9781C203.385 14.0925 220.645 15.4321 237.88 16.9851C238.814 17.068 240.359 16.6294 240.858 15.8114C241.406 14.9223 240.384 14.6141 239.637 14.5548C208.968 11.7926 178.225 9.70612 147.456 8.30724C116.688 6.90835 85.8698 6.20891 55.064 6.19706C37.7545 6.19706 20.445 6.39859 3.13544 6.82537L1.37832 9.25563C30.9129 8.15312 60.46 7.18102 90.0071 6.31561C119.554 5.46205 149.101 4.71519 178.648 4.09873C195.235 3.75494 211.834 3.43485 228.421 3.16219C229.393 3.15033 230.864 2.87767 231.399 1.98855C231.935 1.09943 230.951 0.74378 230.178 0.731925C207.261 0.328856 184.368 0.0799022 161.463 0.0206275C138.559 -0.0386473 115.865 0.0680473 93.0727 0.364421C80.1248 0.53039 67.1645 0.755634 54.2166 1.04015C53.2446 1.06386 51.7741 1.32467 51.2382 2.21379C50.7273 3.0555 51.6744 3.49413 52.4595 3.47042V3.45856Z" fill="#ECD996"/>
</svg>
